<svg xmlns="http://www.w3.org/2000/svg" width="634.02" height="715.05" viewBox="0 0 634.02 715.05">
  <defs>
    <style>
      .\39 eb81872-ea8a-4211-a245-43bc1de4f78c, .ac25f1a9-2609-401b-812c-07417aaff040 {
        fill: #faf5fc;
      }

      .\39 7884b06-3019-4d4f-9853-41ea381a11f7, .ac25f1a9-2609-401b-812c-07417aaff040 {
        stroke: #6d9fc9;
        stroke-miterlimit: 10;
      }

      .ac25f1a9-2609-401b-812c-07417aaff040 {
        stroke-dasharray: 4 2;
        opacity: 0.33;
      }

      .\35 fa290ae-68c8-4543-8bda-9778e3418073 {
        fill: #fff;
      }

      .\30 76ea46a-de65-425c-b6b5-1afc91d28398 {
        fill: #f2f2f2;
      }

      .\31 34e8800-6681-499c-86e1-3d419b986c4c {
        fill: #ffd166;
      }

      .\37 82e7f47-69e0-4f0b-9ae3-7ae9d6d81280 {
        fill: #3beda9;
      }

      .\38 4554707-de3e-4c2c-94c4-5bf62b2d2f49 {
        fill: #30c5ff;
      }

      .\39 7884b06-3019-4d4f-9853-41ea381a11f7 {
        fill: none;
      }

      .\36 765cac3-4eb8-4f6c-ac43-fa8afaae98e9 {
        fill: #6d9fc9;
      }

      .\33 b2dab03-dd13-4531-97ec-572f32cfdf36 {
        fill: #ef5b5b;
      }
    </style>
  </defs>
  <title>CME_model_flowchart_1</title>
  <g id="a96b1f0f-f984-4cc6-ad44-d64fe09d7e06" data-name="Layer 2">
    <g id="eb8c9626-eb67-4017-952f-94920b65038c" data-name="Layer 1">
      <g>
        <path class="ac25f1a9-2609-401b-812c-07417aaff040" d="M301.05,397.6H105.18c-11.65,0-21.1-9.85-21.1-22v-236c0-12.17,9.45-22,21.1-22H301.05c11.65,0,21.1,9.85,21.1,22v236C322.15,387.75,312.7,397.6,301.05,397.6Z"/>
        <g>
          <path class="5fa290ae-68c8-4543-8bda-9778e3418073" d="M16.5,32a15.5,15.5,0,0,1,0-31H61.61a15.5,15.5,0,0,1,0,31Z"/>
          <path class="076ea46a-de65-425c-b6b5-1afc91d28398" d="M61.61,2a14.5,14.5,0,0,1,14.5,14.5h0A14.5,14.5,0,0,1,61.61,31H16.5A14.5,14.5,0,0,1,2,16.5H2A14.5,14.5,0,0,1,16.5,2H61.61m0-2H16.5a16.5,16.5,0,0,0,0,33H61.61a16.5,16.5,0,0,0,0-33Z"/>
        </g>
        <g>
          <path class="5fa290ae-68c8-4543-8bda-9778e3418073" d="M16.5,89a15.5,15.5,0,0,1,0-31H61.61a15.5,15.5,0,1,1,0,31Z"/>
          <path class="076ea46a-de65-425c-b6b5-1afc91d28398" d="M61.61,59a14.5,14.5,0,0,1,14.5,14.5h0A14.5,14.5,0,0,1,61.61,88H16.5A14.5,14.5,0,0,1,2,73.5H2A14.5,14.5,0,0,1,16.5,59H61.61m0-2H16.5a16.5,16.5,0,0,0,0,33H61.61a16.5,16.5,0,1,0,0-33Z"/>
        </g>
        <path class="ac25f1a9-2609-401b-812c-07417aaff040" d="M314,691.67H617.61a15.91,15.91,0,0,0,15.91-15.91V431a15.91,15.91,0,0,0-15.91-15.92H388.31A15.91,15.91,0,0,0,372.4,431v75.61a15.93,15.93,0,0,1-16,15.92l-42.23,0a15.92,15.92,0,0,0-16,15.92V675.76A15.91,15.91,0,0,0,314,691.67Z"/>
        <rect class="ac25f1a9-2609-401b-812c-07417aaff040" x="373.41" y="44.5" width="260.11" height="353.1" rx="18.13" ry="18.13" transform="translate(1006.94 442.1) rotate(180)"/>
        <g>
          <path class="134e8800-6681-499c-86e1-3d419b986c4c" d="M402.24,89a15.5,15.5,0,0,1,0-31H529.37a15.5,15.5,0,0,1,0,31Z"/>
          <path class="076ea46a-de65-425c-b6b5-1afc91d28398" d="M529.36,59a14.5,14.5,0,0,1,14.5,14.5h0A14.5,14.5,0,0,1,529.36,88H402.24a14.5,14.5,0,0,1-14.5-14.5h0A14.5,14.5,0,0,1,402.24,59H529.36m0-2H402.24a16.5,16.5,0,0,0,0,33H529.36a16.5,16.5,0,0,0,0-33Z"/>
        </g>
        <g>
          <path class="5fa290ae-68c8-4543-8bda-9778e3418073" d="M243.86,101.37a13.55,13.55,0,0,1-7-2L213.25,85a13.52,13.52,0,0,1,0-23.08l23.59-14.35a13.49,13.49,0,0,1,14,0L274.47,62a13.52,13.52,0,0,1,0,23.08L250.88,99.4A13.55,13.55,0,0,1,243.86,101.37Z"/>
          <path class="076ea46a-de65-425c-b6b5-1afc91d28398" d="M243.86,46.64a12.43,12.43,0,0,1,6.5,1.82L274,62.82a12.51,12.51,0,0,1,0,21.36L250.36,98.54a12.46,12.46,0,0,1-13,0L213.77,84.18a12.51,12.51,0,0,1,0-21.36l23.59-14.36a12.43,12.43,0,0,1,6.5-1.82m0-2a14.52,14.52,0,0,0-7.54,2.11L212.73,61.11a14.51,14.51,0,0,0,0,24.78l23.59,14.36a14.47,14.47,0,0,0,15.08,0L275,85.89a14.51,14.51,0,0,0,0-24.78L251.4,46.75a14.52,14.52,0,0,0-7.54-2.11Z"/>
        </g>
        <g>
          <path class="5fa290ae-68c8-4543-8bda-9778e3418073" d="M243.86,231.81a13.46,13.46,0,0,1-7-2l-23.59-14.35a13.52,13.52,0,0,1,0-23.08l23.59-14.36a13.49,13.49,0,0,1,14,0l23.59,14.36a13.52,13.52,0,0,1,0,23.08l-23.59,14.35A13.46,13.46,0,0,1,243.86,231.81Z"/>
          <path class="076ea46a-de65-425c-b6b5-1afc91d28398" d="M243.86,177.08a12.44,12.44,0,0,1,6.5,1.83L274,193.27a12.51,12.51,0,0,1,0,21.36L250.36,229a12.52,12.52,0,0,1-13,0l-23.59-14.36a12.51,12.51,0,0,1,0-21.36l23.59-14.36a12.44,12.44,0,0,1,6.5-1.83m0-2a14.53,14.53,0,0,0-7.54,2.12l-23.59,14.36a14.51,14.51,0,0,0,0,24.78l23.59,14.36a14.53,14.53,0,0,0,15.08,0L275,216.34a14.51,14.51,0,0,0,0-24.78L251.4,177.2a14.53,14.53,0,0,0-7.54-2.12Z"/>
        </g>
        <g>
          <path class="5fa290ae-68c8-4543-8bda-9778e3418073" d="M243.86,304.11a13.46,13.46,0,0,1-7-2l-23.59-14.36a13.51,13.51,0,0,1,0-23.07l23.59-14.36a13.49,13.49,0,0,1,14,0l23.59,14.36a13.51,13.51,0,0,1,0,23.07l-23.59,14.36a13.46,13.46,0,0,1-7,2Z"/>
          <path class="076ea46a-de65-425c-b6b5-1afc91d28398" d="M243.86,249.38a12.44,12.44,0,0,1,6.5,1.83L274,265.57a12.51,12.51,0,0,1,0,21.36l-23.59,14.36a12.52,12.52,0,0,1-13,0l-23.59-14.36a12.51,12.51,0,0,1,0-21.36l23.59-14.36a12.44,12.44,0,0,1,6.5-1.83m0-2a14.43,14.43,0,0,0-7.54,2.12l-23.59,14.36a14.51,14.51,0,0,0,0,24.78L236.32,303a14.53,14.53,0,0,0,15.08,0L275,288.64a14.51,14.51,0,0,0,0-24.78L251.4,249.5a14.43,14.43,0,0,0-7.54-2.12Z"/>
        </g>
        <g>
          <path class="5fa290ae-68c8-4543-8bda-9778e3418073" d="M243.86,376.8a13.46,13.46,0,0,1-7-2l-23.59-14.36a13.51,13.51,0,0,1,0-23.07L236.84,323a13.49,13.49,0,0,1,14,0l23.59,14.36a13.51,13.51,0,0,1,0,23.07l-23.59,14.36a13.46,13.46,0,0,1-7,2Z"/>
          <path class="076ea46a-de65-425c-b6b5-1afc91d28398" d="M243.86,322.07a12.53,12.53,0,0,1,6.5,1.82L274,338.25a12.51,12.51,0,0,1,0,21.37L250.36,374a12.52,12.52,0,0,1-13,0l-23.59-14.36a12.51,12.51,0,0,1,0-21.37l23.59-14.36a12.53,12.53,0,0,1,6.5-1.82m0-2a14.43,14.43,0,0,0-7.54,2.12l-23.59,14.36a14.51,14.51,0,0,0,0,24.78l23.59,14.36a14.53,14.53,0,0,0,15.08,0L275,361.33a14.51,14.51,0,0,0,0-24.78L251.4,322.19a14.43,14.43,0,0,0-7.54-2.12Z"/>
        </g>
        <g>
          <path class="5fa290ae-68c8-4543-8bda-9778e3418073" d="M16.5,132.79a15.5,15.5,0,1,1,0-31H61.61a15.5,15.5,0,1,1,0,31Z"/>
          <path class="076ea46a-de65-425c-b6b5-1afc91d28398" d="M61.61,102.79a14.5,14.5,0,0,1,14.5,14.5h0a14.5,14.5,0,0,1-14.5,14.5H16.5A14.5,14.5,0,0,1,2,117.29H2a14.5,14.5,0,0,1,14.5-14.5H61.61m0-2H16.5a16.5,16.5,0,1,0,0,33H61.61a16.5,16.5,0,1,0,0-33Z"/>
        </g>
        <g>
          <path class="5fa290ae-68c8-4543-8bda-9778e3418073" d="M550,175.68a15.5,15.5,0,0,1,0-31h45.31a15.5,15.5,0,0,1,0,31Z"/>
          <path class="076ea46a-de65-425c-b6b5-1afc91d28398" d="M595.26,145.68a14.5,14.5,0,0,1,14.5,14.5h0a14.5,14.5,0,0,1-14.5,14.5H550a14.5,14.5,0,0,1-14.5-14.5h0a14.5,14.5,0,0,1,14.5-14.5h45.31m0-2H550a16.5,16.5,0,0,0,0,33h45.31a16.5,16.5,0,0,0,0-33Z"/>
        </g>
        <g>
          <path class="5fa290ae-68c8-4543-8bda-9778e3418073" d="M550.05,218.88a15.5,15.5,0,0,1,0-31h45.11a15.5,15.5,0,0,1,0,31Z"/>
          <path class="076ea46a-de65-425c-b6b5-1afc91d28398" d="M595.16,188.88a14.5,14.5,0,0,1,14.5,14.5h0a14.5,14.5,0,0,1-14.5,14.5H550.05a14.5,14.5,0,0,1-14.5-14.5h0a14.5,14.5,0,0,1,14.5-14.5h45.11m0-2H550.05a16.5,16.5,0,0,0,0,33h45.11a16.5,16.5,0,0,0,0-33Z"/>
        </g>
        <g>
          <path class="5fa290ae-68c8-4543-8bda-9778e3418073" d="M549.73,262.41a15.5,15.5,0,1,1,0-31h45.11a15.5,15.5,0,0,1,0,31Z"/>
          <path class="076ea46a-de65-425c-b6b5-1afc91d28398" d="M594.84,232.41a14.5,14.5,0,0,1,14.5,14.5h0a14.5,14.5,0,0,1-14.5,14.5H549.73a14.5,14.5,0,0,1-14.5-14.5h0a14.5,14.5,0,0,1,14.5-14.5h45.11m0-2H549.73a16.5,16.5,0,1,0,0,33h45.11a16.5,16.5,0,0,0,0-33Z"/>
        </g>
        <g>
          <path class="5fa290ae-68c8-4543-8bda-9778e3418073" d="M203,451.58a15.5,15.5,0,1,1,0-31h86.14a15.5,15.5,0,0,1,0,31Z"/>
          <path class="076ea46a-de65-425c-b6b5-1afc91d28398" d="M289.15,421.58a14.5,14.5,0,0,1,14.5,14.5h0a14.5,14.5,0,0,1-14.5,14.5H203a14.5,14.5,0,0,1-14.5-14.5h0a14.5,14.5,0,0,1,14.5-14.5h86.14m0-2H203a16.5,16.5,0,1,0,0,33h86.14a16.5,16.5,0,0,0,0-33Z"/>
        </g>
        <g>
          <path class="5fa290ae-68c8-4543-8bda-9778e3418073" d="M119.06,364.34a15.5,15.5,0,0,1,0-31h45.11a15.5,15.5,0,1,1,0,31Z"/>
          <path class="076ea46a-de65-425c-b6b5-1afc91d28398" d="M164.17,334.34a14.5,14.5,0,0,1,14.5,14.5h0a14.5,14.5,0,0,1-14.5,14.5H119.06a14.5,14.5,0,0,1-14.5-14.5h0a14.5,14.5,0,0,1,14.5-14.5h45.11m0-2H119.06a16.5,16.5,0,0,0,0,33h45.11a16.5,16.5,0,1,0,0-33Z"/>
        </g>
        <g>
          <path class="5fa290ae-68c8-4543-8bda-9778e3418073" d="M119.06,321.18a15.5,15.5,0,0,1,0-31h45.11a15.5,15.5,0,1,1,0,31Z"/>
          <path class="076ea46a-de65-425c-b6b5-1afc91d28398" d="M164.17,291.18a14.5,14.5,0,0,1,14.5,14.5h0a14.5,14.5,0,0,1-14.5,14.5H119.06a14.5,14.5,0,0,1-14.5-14.5h0a14.5,14.5,0,0,1,14.5-14.5h45.11m0-2H119.06a16.5,16.5,0,0,0,0,33h45.11a16.5,16.5,0,1,0,0-33Z"/>
        </g>
        <g>
          <path class="5fa290ae-68c8-4543-8bda-9778e3418073" d="M427,335.19a15.5,15.5,0,0,1,0-31h45.11a15.5,15.5,0,0,1,0,31Z"/>
          <path class="076ea46a-de65-425c-b6b5-1afc91d28398" d="M472.09,305.19a14.5,14.5,0,0,1,14.5,14.5h0a14.5,14.5,0,0,1-14.5,14.5H427a14.5,14.5,0,0,1-14.5-14.5h0a14.5,14.5,0,0,1,14.5-14.5h45.11m0-2H427a16.5,16.5,0,0,0,0,33h45.11a16.5,16.5,0,0,0,0-33Z"/>
        </g>
        <g>
          <path class="5fa290ae-68c8-4543-8bda-9778e3418073" d="M427,378.68a15.5,15.5,0,0,1,0-31h45.11a15.5,15.5,0,0,1,0,31Z"/>
          <path class="076ea46a-de65-425c-b6b5-1afc91d28398" d="M472.09,348.68a14.5,14.5,0,0,1,14.5,14.5h0a14.5,14.5,0,0,1-14.5,14.5H427a14.5,14.5,0,0,1-14.5-14.5h0a14.5,14.5,0,0,1,14.5-14.5h45.11m0-2H427a16.5,16.5,0,0,0,0,33h45.11a16.5,16.5,0,0,0,0-33Z"/>
        </g>
        <g>
          <path class="5fa290ae-68c8-4543-8bda-9778e3418073" d="M449.14,188a13.52,13.52,0,0,1-7-2l-23.58-14.36a13.5,13.5,0,0,1,0-23.07l23.58-14.36a13.51,13.51,0,0,1,14.05,0l23.59,14.36a13.51,13.51,0,0,1,0,23.07l-23.59,14.36A13.51,13.51,0,0,1,449.14,188Z"/>
          <path class="076ea46a-de65-425c-b6b5-1afc91d28398" d="M449.14,133.31a12.55,12.55,0,0,1,6.5,1.82l23.59,14.36a12.51,12.51,0,0,1,0,21.37l-23.59,14.36a12.54,12.54,0,0,1-13,0l-23.58-14.36a12.51,12.51,0,0,1,0-21.37l23.58-14.36a12.56,12.56,0,0,1,6.51-1.82m0-2a14.47,14.47,0,0,0-7.55,2.12L418,147.78a14.51,14.51,0,0,0,0,24.79l23.58,14.35a14.49,14.49,0,0,0,15.09,0l23.59-14.35a14.52,14.52,0,0,0,0-24.79l-23.59-14.35a14.43,14.43,0,0,0-7.54-2.12Z"/>
        </g>
        <g>
          <path class="5fa290ae-68c8-4543-8bda-9778e3418073" d="M449.42,274.76a13.46,13.46,0,0,1-7-2l-23.59-14.36a13.51,13.51,0,0,1,0-23.07L442.4,221a13.49,13.49,0,0,1,14,0L480,235.36a13.51,13.51,0,0,1,0,23.07l-23.59,14.36a13.46,13.46,0,0,1-7,2Z"/>
          <path class="076ea46a-de65-425c-b6b5-1afc91d28398" d="M449.42,220a12.43,12.43,0,0,1,6.5,1.82l23.59,14.36a12.51,12.51,0,0,1,0,21.36l-23.59,14.36a12.46,12.46,0,0,1-13,0l-23.59-14.36a12.51,12.51,0,0,1,0-21.36l23.59-14.36a12.43,12.43,0,0,1,6.5-1.82m0-2a14.52,14.52,0,0,0-7.54,2.11L418.29,234.5a14.51,14.51,0,0,0,0,24.78l23.59,14.36a14.47,14.47,0,0,0,15.08,0l23.59-14.36a14.51,14.51,0,0,0,0-24.78L457,220.14a14.52,14.52,0,0,0-7.54-2.11Z"/>
        </g>
        <g>
          <path class="5fa290ae-68c8-4543-8bda-9778e3418073" d="M571.91,536a13.48,13.48,0,0,1-7-2L541.3,519.67a13.51,13.51,0,0,1,0-23.07l23.59-14.36a13.49,13.49,0,0,1,14,0l23.59,14.36a13.5,13.5,0,0,1,0,23.07L578.93,534A13.46,13.46,0,0,1,571.91,536Z"/>
          <path class="076ea46a-de65-425c-b6b5-1afc91d28398" d="M571.91,481.27a12.56,12.56,0,0,1,6.51,1.82L602,497.45a12.51,12.51,0,0,1,0,21.37l-23.58,14.35a12.48,12.48,0,0,1-13,0l-23.59-14.35a12.51,12.51,0,0,1,0-21.37l23.59-14.36a12.55,12.55,0,0,1,6.5-1.82m0-2a14.52,14.52,0,0,0-7.54,2.11l-23.59,14.36a14.51,14.51,0,0,0,0,24.78l23.59,14.36a14.49,14.49,0,0,0,15.09,0L603,520.52a14.51,14.51,0,0,0,0-24.78l-23.58-14.36a14.58,14.58,0,0,0-7.55-2.11Z"/>
        </g>
        <g>
          <path class="5fa290ae-68c8-4543-8bda-9778e3418073" d="M571.91,608a13.48,13.48,0,0,1-7-2L541.3,591.65a13.52,13.52,0,0,1,0-23.08l23.59-14.36a13.49,13.49,0,0,1,14,0l23.59,14.36a13.5,13.5,0,0,1,0,23.08L578.93,606A13.46,13.46,0,0,1,571.91,608Z"/>
          <path class="076ea46a-de65-425c-b6b5-1afc91d28398" d="M571.91,553.24a12.48,12.48,0,0,1,6.51,1.83L602,569.43a12.5,12.5,0,0,1,0,21.36l-23.58,14.36a12.54,12.54,0,0,1-13,0l-23.59-14.36a12.51,12.51,0,0,1,0-21.36l23.59-14.36a12.47,12.47,0,0,1,6.5-1.83m0-2a14.43,14.43,0,0,0-7.54,2.12l-23.59,14.36a14.51,14.51,0,0,0,0,24.78l23.59,14.36a14.54,14.54,0,0,0,15.09,0L603,592.5a14.51,14.51,0,0,0,0-24.78l-23.58-14.36a14.5,14.5,0,0,0-7.55-2.12Z"/>
        </g>
        <g>
          <path class="5fa290ae-68c8-4543-8bda-9778e3418073" d="M571.91,681.08a13.48,13.48,0,0,1-7-2L541.3,664.75a13.51,13.51,0,0,1,0-23.07l23.59-14.36a13.49,13.49,0,0,1,14,0l23.59,14.36a13.5,13.5,0,0,1,0,23.07l-23.59,14.36a13.46,13.46,0,0,1-7,2Z"/>
          <path class="076ea46a-de65-425c-b6b5-1afc91d28398" d="M571.91,626.35a12.48,12.48,0,0,1,6.51,1.83L602,642.53a12.51,12.51,0,0,1,0,21.37l-23.58,14.36a12.54,12.54,0,0,1-13,0L541.82,663.9a12.51,12.51,0,0,1,0-21.37l23.59-14.35a12.47,12.47,0,0,1,6.5-1.83m0-2a14.43,14.43,0,0,0-7.54,2.12l-23.59,14.36a14.51,14.51,0,0,0,0,24.78L564.37,680a14.54,14.54,0,0,0,15.09,0L603,665.61a14.51,14.51,0,0,0,0-24.78l-23.58-14.36a14.5,14.5,0,0,0-7.55-2.12Z"/>
        </g>
        <g>
          <path class="782e7f47-69e0-4f0b-9ae3-7ae9d6d81280" d="M179.34,161.5a15.5,15.5,0,0,1,0-31H291.51a15.5,15.5,0,0,1,0,31Z"/>
          <path class="076ea46a-de65-425c-b6b5-1afc91d28398" d="M291.51,131.5A14.5,14.5,0,0,1,306,146h0a14.5,14.5,0,0,1-14.5,14.5H179.34a14.5,14.5,0,0,1-14.5-14.5h0a14.5,14.5,0,0,1,14.5-14.5H291.51m0-2H179.34a16.5,16.5,0,0,0,0,33H291.51a16.5,16.5,0,0,0,0-33Z"/>
        </g>
        <g>
          <path class="84554707-de3e-4c2c-94c4-5bf62b2d2f49" d="M481.61,465.59a15.5,15.5,0,0,1,0-31H608.8a15.5,15.5,0,0,1,0,31Z"/>
          <path class="076ea46a-de65-425c-b6b5-1afc91d28398" d="M608.8,435.59a14.5,14.5,0,0,1,14.5,14.5h0a14.5,14.5,0,0,1-14.5,14.5H481.61a14.5,14.5,0,0,1-14.5-14.5h0a14.5,14.5,0,0,1,14.5-14.5H608.8m0-2H481.61a16.5,16.5,0,0,0,0,33H608.8a16.5,16.5,0,0,0,0-33Z"/>
        </g>
        <g>
          <line class="97884b06-3019-4d4f-9853-41ea381a11f7" x1="58.58" y1="31" x2="58.64" y2="56.45"/>
          <polygon class="6765cac3-4eb8-4f6c-ac43-fa8afaae98e9" points="55.14 55.44 58.65 61.47 62.12 55.42 55.14 55.44"/>
        </g>
        <g>
          <line class="97884b06-3019-4d4f-9853-41ea381a11f7" x1="243.83" y1="100.39" x2="243.89" y2="128.67"/>
          <polygon class="6765cac3-4eb8-4f6c-ac43-fa8afaae98e9" points="240.4 127.65 243.9 133.69 247.38 127.64 240.4 127.65"/>
        </g>
        <g>
          <line class="9eb81872-ea8a-4211-a245-43bc1de4f78c" x1="243.83" y1="160.5" x2="243.89" y2="174.88"/>
          <g>
            <line class="97884b06-3019-4d4f-9853-41ea381a11f7" x1="243.83" y1="160.5" x2="243.89" y2="174.88"/>
            <polygon class="6765cac3-4eb8-4f6c-ac43-fa8afaae98e9" points="240.4 173.88 243.91 179.91 247.38 173.85 240.4 173.88"/>
          </g>
        </g>
        <g>
          <path class="97884b06-3019-4d4f-9853-41ea381a11f7" d="M207,204.14H53.47A14.44,14.44,0,0,1,39,189.69"/>
          <polygon class="6765cac3-4eb8-4f6c-ac43-fa8afaae98e9" points="42.52 190.72 39.03 184.67 35.54 190.72 42.52 190.72"/>
        </g>
        <g>
          <path class="97884b06-3019-4d4f-9853-41ea381a11f7" d="M104.56,305.29h-51A14.55,14.55,0,0,1,39,290.73"/>
          <polygon class="6765cac3-4eb8-4f6c-ac43-fa8afaae98e9" points="42.52 291.75 39.03 285.71 35.54 291.75 42.52 291.75"/>
        </g>
        <g>
          <line class="97884b06-3019-4d4f-9853-41ea381a11f7" x1="39.03" y1="334.54" x2="39.03" y2="133.78"/>
          <polygon class="6765cac3-4eb8-4f6c-ac43-fa8afaae98e9" points="42.52 134.8 39.03 128.75 35.54 134.8 42.52 134.8"/>
        </g>
        <g>
          <path class="97884b06-3019-4d4f-9853-41ea381a11f7" d="M188.51,436.08l-136.4.19a12.69,12.69,0,0,1-12.7-13.06"/>
          <polygon class="6765cac3-4eb8-4f6c-ac43-fa8afaae98e9" points="42.87 424.33 39.56 418.19 35.89 424.13 42.87 424.33"/>
        </g>
        <g>
          <path class="97884b06-3019-4d4f-9853-41ea381a11f7" d="M157.18,276.49H53.86A14.45,14.45,0,0,1,39.41,262"/>
          <polygon class="6765cac3-4eb8-4f6c-ac43-fa8afaae98e9" points="42.9 263.06 39.41 257.02 35.92 263.06 42.9 263.06"/>
        </g>
        <g>
          <line class="97884b06-3019-4d4f-9853-41ea381a11f7" x1="207" y1="276.49" x2="141.61" y2="276.49"/>
          <polygon class="6765cac3-4eb8-4f6c-ac43-fa8afaae98e9" points="142.63 273 136.59 276.49 142.63 279.98 142.63 273"/>
        </g>
        <g>
          <line class="97884b06-3019-4d4f-9853-41ea381a11f7" x1="207" y1="203.95" x2="141.61" y2="203.95"/>
          <polygon class="6765cac3-4eb8-4f6c-ac43-fa8afaae98e9" points="142.63 200.46 136.59 203.95 142.63 207.44 142.63 200.46"/>
        </g>
        <g>
          <line class="97884b06-3019-4d4f-9853-41ea381a11f7" x1="188.51" y1="436.08" x2="141.61" y2="436.26"/>
          <polygon class="6765cac3-4eb8-4f6c-ac43-fa8afaae98e9" points="142.62 432.77 136.59 436.28 142.65 439.75 142.62 432.77"/>
        </g>
        <g>
          <line class="97884b06-3019-4d4f-9853-41ea381a11f7" x1="188.51" y1="711.38" x2="141.61" y2="711.56"/>
          <polygon class="6765cac3-4eb8-4f6c-ac43-fa8afaae98e9" points="142.62 708.07 136.59 711.58 142.65 715.05 142.62 708.07"/>
        </g>
        <g>
          <line class="97884b06-3019-4d4f-9853-41ea381a11f7" x1="188.51" y1="580.05" x2="141.61" y2="580.23"/>
          <polygon class="6765cac3-4eb8-4f6c-ac43-fa8afaae98e9" points="142.62 576.74 136.59 580.25 142.65 583.72 142.62 576.74"/>
        </g>
        <g>
          <line class="97884b06-3019-4d4f-9853-41ea381a11f7" x1="189.4" y1="479.5" x2="142.51" y2="479.5"/>
          <polygon class="6765cac3-4eb8-4f6c-ac43-fa8afaae98e9" points="143.53 476.01 137.48 479.5 143.53 482.99 143.53 476.01"/>
        </g>
        <g>
          <line class="97884b06-3019-4d4f-9853-41ea381a11f7" x1="207" y1="348.94" x2="180.95" y2="348.94"/>
          <polygon class="6765cac3-4eb8-4f6c-ac43-fa8afaae98e9" points="181.97 345.45 175.92 348.94 181.97 352.43 181.97 345.45"/>
        </g>
        <g>
          <line class="9eb81872-ea8a-4211-a245-43bc1de4f78c" x1="243.86" y1="232.47" x2="243.86" y2="247.35"/>
          <g>
            <line class="97884b06-3019-4d4f-9853-41ea381a11f7" x1="243.86" y1="232.47" x2="243.86" y2="247.35"/>
            <polygon class="6765cac3-4eb8-4f6c-ac43-fa8afaae98e9" points="240.37 246.33 243.86 252.37 247.35 246.33 240.37 246.33"/>
          </g>
        </g>
        <g>
          <path class="5fa290ae-68c8-4543-8bda-9778e3418073" d="M447.05,668.68a15.5,15.5,0,0,1,0-31h45.11a15.5,15.5,0,0,1,0,31Z"/>
          <path class="076ea46a-de65-425c-b6b5-1afc91d28398" d="M492.16,638.68a14.5,14.5,0,0,1,14.5,14.5h0a14.5,14.5,0,0,1-14.5,14.5H447.05a14.5,14.5,0,0,1-14.5-14.5h0a14.5,14.5,0,0,1,14.5-14.5h45.11m0-2H447.05a16.5,16.5,0,0,0,0,33h45.11a16.5,16.5,0,0,0,0-33Z"/>
        </g>
        <g>
          <path class="5fa290ae-68c8-4543-8bda-9778e3418073" d="M447.15,595.61a15.5,15.5,0,0,1,0-31h45.11a15.5,15.5,0,0,1,0,31Z"/>
          <path class="076ea46a-de65-425c-b6b5-1afc91d28398" d="M492.26,565.61a14.5,14.5,0,0,1,14.5,14.5h0a14.5,14.5,0,0,1-14.5,14.5H447.15a14.5,14.5,0,0,1-14.5-14.5h0a14.5,14.5,0,0,1,14.5-14.5h45.11m0-2H447.15a16.5,16.5,0,0,0,0,33h45.11a16.5,16.5,0,0,0,0-33Z"/>
        </g>
        <g>
          <path class="5fa290ae-68c8-4543-8bda-9778e3418073" d="M341.76,595.61a15.5,15.5,0,0,1,0-31h45.11a15.5,15.5,0,0,1,0,31Z"/>
          <path class="076ea46a-de65-425c-b6b5-1afc91d28398" d="M386.87,565.61a14.5,14.5,0,0,1,14.5,14.5h0a14.5,14.5,0,0,1-14.5,14.5H341.76a14.5,14.5,0,0,1,0-29h45.11m0-2H341.76a16.5,16.5,0,0,0,0,33h45.11a16.5,16.5,0,0,0,0-33Z"/>
        </g>
        <g>
          <line class="3b2dab03-dd13-4531-97ec-572f32cfdf36" x1="469.64" y1="637.53" x2="469.57" y2="597.16"/>
          <g>
            <line class="97884b06-3019-4d4f-9853-41ea381a11f7" x1="469.64" y1="637.53" x2="469.57" y2="597.16"/>
            <polygon class="6765cac3-4eb8-4f6c-ac43-fa8afaae98e9" points="473.06 598.18 469.57 592.14 466.08 598.19 473.06 598.18"/>
          </g>
        </g>
        <g>
          <line class="3b2dab03-dd13-4531-97ec-572f32cfdf36" x1="432.65" y1="580.1" x2="403.7" y2="580.14"/>
          <g>
            <line class="97884b06-3019-4d4f-9853-41ea381a11f7" x1="432.65" y1="580.1" x2="403.7" y2="580.14"/>
            <polygon class="6765cac3-4eb8-4f6c-ac43-fa8afaae98e9" points="404.71 576.65 398.67 580.14 404.72 583.63 404.71 576.65"/>
          </g>
        </g>
        <g>
          <path class="97884b06-3019-4d4f-9853-41ea381a11f7" d="M327.26,580.11l-274.32.28A13.89,13.89,0,0,1,39,566.5v-.32"/>
          <polygon class="6765cac3-4eb8-4f6c-ac43-fa8afaae98e9" points="42.52 567.2 39.03 561.15 35.54 567.2 42.52 567.2"/>
        </g>
        <g>
          <line class="97884b06-3019-4d4f-9853-41ea381a11f7" x1="76.11" y1="73.5" x2="205.22" y2="73.5"/>
          <polygon class="6765cac3-4eb8-4f6c-ac43-fa8afaae98e9" points="204.19 76.99 210.24 73.5 204.19 70.01 204.19 76.99"/>
        </g>
        <g>
          <line class="97884b06-3019-4d4f-9853-41ea381a11f7" x1="277.02" y1="73.5" x2="385.59" y2="73.43"/>
          <polygon class="6765cac3-4eb8-4f6c-ac43-fa8afaae98e9" points="384.57 76.92 390.62 73.43 384.57 69.94 384.57 76.92"/>
        </g>
        <g>
          <line class="97884b06-3019-4d4f-9853-41ea381a11f7" x1="449.14" y1="88" x2="449.42" y2="130.05"/>
          <polygon class="6765cac3-4eb8-4f6c-ac43-fa8afaae98e9" points="445.92 129.05 449.45 135.07 452.9 129 445.92 129.05"/>
        </g>
        <g>
          <line class="97884b06-3019-4d4f-9853-41ea381a11f7" x1="18.61" y1="59" x2="18.55" y2="33.55"/>
          <polygon class="6765cac3-4eb8-4f6c-ac43-fa8afaae98e9" points="22.04 34.56 18.54 28.53 15.06 34.58 22.04 34.56"/>
        </g>
        <g>
          <line class="97884b06-3019-4d4f-9853-41ea381a11f7" x1="39.08" y1="102.5" x2="39.03" y2="90.55"/>
          <polygon class="6765cac3-4eb8-4f6c-ac43-fa8afaae98e9" points="42.52 91.56 39 85.53 35.54 91.59 42.52 91.56"/>
        </g>
        <g>
          <line class="9eb81872-ea8a-4211-a245-43bc1de4f78c" x1="485.23" y1="160.14" x2="532.33" y2="160.18"/>
          <g>
            <line class="97884b06-3019-4d4f-9853-41ea381a11f7" x1="485.23" y1="160.14" x2="532.33" y2="160.18"/>
            <polygon class="6765cac3-4eb8-4f6c-ac43-fa8afaae98e9" points="531.3 163.67 537.35 160.18 531.31 156.69 531.3 163.67"/>
          </g>
        </g>
        <g>
          <line class="97884b06-3019-4d4f-9853-41ea381a11f7" x1="571.91" y1="534.51" x2="571.91" y2="550.53"/>
          <polygon class="6765cac3-4eb8-4f6c-ac43-fa8afaae98e9" points="568.42 549.51 571.91 555.55 575.4 549.51 568.42 549.51"/>
        </g>
        <path class="97884b06-3019-4d4f-9853-41ea381a11f7" d="M571.34,682.22h0v13.89A14.38,14.38,0,0,1,557,710.63l-501.56.89A16.41,16.41,0,0,1,39,695.12V334.54"/>
        <g>
          <path class="97884b06-3019-4d4f-9853-41ea381a11f7" d="M413,247.21l-49.36-.09a17.09,17.09,0,0,0-17.27,17.08l.15,198.15a17.09,17.09,0,0,1-17.09,17.08l-273.36.15c-9.44,0-17.08-7.08-17.08-16.51"/>
          <polygon class="6765cac3-4eb8-4f6c-ac43-fa8afaae98e9" points="42.52 464.09 39.03 458.05 35.54 464.09 42.52 464.09"/>
        </g>
        <g>
          <path class="97884b06-3019-4d4f-9853-41ea381a11f7" d="M449.14,377.74v20a9,9,0,0,0,9,9H562.94a9.3,9.3,0,0,1,9.31,9.34l-.06,14.11"/>
          <polygon class="6765cac3-4eb8-4f6c-ac43-fa8afaae98e9" points="568.7 429.09 572.16 435.15 575.68 429.13 568.7 429.09"/>
        </g>
        <g>
          <line class="9eb81872-ea8a-4211-a245-43bc1de4f78c" x1="572.62" y1="217.88" x2="572.62" y2="229.5"/>
          <g>
            <line class="97884b06-3019-4d4f-9853-41ea381a11f7" x1="572.62" y1="217.88" x2="572.62" y2="229.5"/>
            <polygon class="6765cac3-4eb8-4f6c-ac43-fa8afaae98e9" points="569.13 228.48 572.62 234.52 576.11 228.48 569.13 228.48"/>
          </g>
        </g>
        <g>
          <line class="9eb81872-ea8a-4211-a245-43bc1de4f78c" x1="572.62" y1="174.48" x2="572.62" y2="185.98"/>
          <g>
            <line class="97884b06-3019-4d4f-9853-41ea381a11f7" x1="572.62" y1="174.48" x2="572.62" y2="185.98"/>
            <polygon class="6765cac3-4eb8-4f6c-ac43-fa8afaae98e9" points="569.13 184.96 572.62 191 576.11 184.96 569.13 184.96"/>
          </g>
        </g>
        <g>
          <line class="9eb81872-ea8a-4211-a245-43bc1de4f78c" x1="449.14" y1="187.04" x2="449.14" y2="217.76"/>
          <g>
            <line class="97884b06-3019-4d4f-9853-41ea381a11f7" x1="449.14" y1="187.04" x2="449.14" y2="217.76"/>
            <polygon class="6765cac3-4eb8-4f6c-ac43-fa8afaae98e9" points="445.65 216.74 449.14 222.78 452.63 216.74 445.65 216.74"/>
          </g>
        </g>
        <g>
          <line class="97884b06-3019-4d4f-9853-41ea381a11f7" x1="449.14" y1="334.06" x2="449.14" y2="346.09"/>
          <polygon class="6765cac3-4eb8-4f6c-ac43-fa8afaae98e9" points="445.65 345.07 449.14 351.12 452.63 345.07 445.65 345.07"/>
        </g>
        <g>
          <line class="9eb81872-ea8a-4211-a245-43bc1de4f78c" x1="572.19" y1="464.41" x2="572.2" y2="479.13"/>
          <g>
            <line class="97884b06-3019-4d4f-9853-41ea381a11f7" x1="572.19" y1="464.41" x2="572.2" y2="479.13"/>
            <polygon class="6765cac3-4eb8-4f6c-ac43-fa8afaae98e9" points="568.71 478.12 572.2 484.16 575.69 478.11 568.71 478.12"/>
          </g>
        </g>
        <g>
          <line class="97884b06-3019-4d4f-9853-41ea381a11f7" x1="449.14" y1="273.83" x2="449.14" y2="304.55"/>
          <polygon class="6765cac3-4eb8-4f6c-ac43-fa8afaae98e9" points="445.65 303.53 449.14 309.57 452.63 303.53 445.65 303.53"/>
        </g>
        <g>
          <path class="97884b06-3019-4d4f-9853-41ea381a11f7" d="M572.89,262.15v82.32a18.71,18.71,0,0,1-18.71,18.71h-65"/>
          <polygon class="6765cac3-4eb8-4f6c-ac43-fa8afaae98e9" points="490.16 359.69 484.12 363.18 490.16 366.67 490.16 359.69"/>
        </g>
        <g>
          <line class="9eb81872-ea8a-4211-a245-43bc1de4f78c" x1="243.86" y1="304.56" x2="243.86" y2="320.01"/>
          <g>
            <line class="97884b06-3019-4d4f-9853-41ea381a11f7" x1="243.86" y1="304.56" x2="243.86" y2="320.01"/>
            <polygon class="6765cac3-4eb8-4f6c-ac43-fa8afaae98e9" points="240.37 318.99 243.86 325.04 247.35 318.99 240.37 318.99"/>
          </g>
        </g>
        <g>
          <line class="9eb81872-ea8a-4211-a245-43bc1de4f78c" x1="142.51" y1="334.38" x2="142.51" y2="322.9"/>
          <g>
            <line class="97884b06-3019-4d4f-9853-41ea381a11f7" x1="142.51" y1="334.38" x2="142.51" y2="322.9"/>
            <polygon class="6765cac3-4eb8-4f6c-ac43-fa8afaae98e9" points="146 323.92 142.51 317.88 139.02 323.92 146 323.92"/>
          </g>
        </g>
        <g>
          <line class="9eb81872-ea8a-4211-a245-43bc1de4f78c" x1="243.86" y1="375.97" x2="243.86" y2="418.46"/>
          <g>
            <line class="97884b06-3019-4d4f-9853-41ea381a11f7" x1="243.86" y1="375.97" x2="243.86" y2="418.46"/>
            <polygon class="6765cac3-4eb8-4f6c-ac43-fa8afaae98e9" points="240.37 417.44 243.86 423.49 247.35 417.44 240.37 417.44"/>
          </g>
        </g>
        <g>
          <line class="3b2dab03-dd13-4531-97ec-572f32cfdf36" x1="572.2" y1="608.09" x2="572.2" y2="623.4"/>
          <g>
            <line class="97884b06-3019-4d4f-9853-41ea381a11f7" x1="572.2" y1="608.09" x2="572.2" y2="623.4"/>
            <polygon class="6765cac3-4eb8-4f6c-ac43-fa8afaae98e9" points="568.71 622.38 572.2 628.42 575.69 622.38 568.71 622.38"/>
          </g>
        </g>
        <g>
          <line class="97884b06-3019-4d4f-9853-41ea381a11f7" x1="535.27" y1="580.48" x2="509.11" y2="580.54"/>
          <polygon class="6765cac3-4eb8-4f6c-ac43-fa8afaae98e9" points="510.13 577.05 504.09 580.55 510.14 584.03 510.13 577.05"/>
        </g>
        <g>
          <line class="97884b06-3019-4d4f-9853-41ea381a11f7" x1="411.95" y1="247.14" x2="385.8" y2="247.21"/>
          <polygon class="6765cac3-4eb8-4f6c-ac43-fa8afaae98e9" points="386.81 243.71 380.77 247.22 386.83 250.69 386.81 243.71"/>
        </g>
        <g>
          <line class="97884b06-3019-4d4f-9853-41ea381a11f7" x1="535.27" y1="653.16" x2="509.11" y2="653.22"/>
          <polygon class="6765cac3-4eb8-4f6c-ac43-fa8afaae98e9" points="510.13 649.72 504.09 653.23 510.14 656.7 510.13 649.72"/>
        </g>
        <g>
          <line class="97884b06-3019-4d4f-9853-41ea381a11f7" x1="481.84" y1="710.88" x2="469.71" y2="710.89"/>
          <polygon class="6765cac3-4eb8-4f6c-ac43-fa8afaae98e9" points="470.73 707.4 464.69 710.9 470.73 714.38 470.73 707.4"/>
        </g>
        <g>
          <path class="97884b06-3019-4d4f-9853-41ea381a11f7" d="M535.82,508.13l-47.65-.06a18.52,18.52,0,0,0-18.53,18.52v36.18"/>
          <polygon class="6765cac3-4eb8-4f6c-ac43-fa8afaae98e9" points="466.14 561.75 469.63 567.8 473.13 561.75 466.14 561.75"/>
        </g>
      </g>
    </g>
  </g>
</svg>
