<svg xmlns="http://www.w3.org/2000/svg" width="443.79" height="198.5" viewBox="0 0 443.79 198.5">
  <title>Asset 8</title>
  <g id="ff866118-6322-40cd-b973-5d7f26417b7b" data-name="Layer 2">
    <g id="aa069193-162b-4543-9e27-bdc56cfa509d" data-name="Layer 1">
      <g>
        <rect x="63.99" y="125.5" width="74.21" height="72.5" rx="14.22" ry="14.22" style="fill: #faf5fc;stroke: #6d9fc9;stroke-miterlimit: 10;stroke-dasharray: 4,2;opacity: 0.33"/>
        <rect x="309.94" y="125.5" width="74.21" height="72.5" rx="14.22" ry="14.22" style="fill: #faf5fc;stroke: #6d9fc9;stroke-miterlimit: 10;stroke-dasharray: 4,2;opacity: 0.33"/>
        <g style="opacity: 0.36">
          <path d="M223.92,116.58a13.52,13.52,0,0,1-7-2l-23.58-14.36a13.5,13.5,0,0,1,0-23.07l23.59-14.36a13.51,13.51,0,0,1,14.05,0l23.58,14.36a13.5,13.5,0,0,1,0,23.07l-23.58,14.36A13.51,13.51,0,0,1,223.92,116.58Z" style="fill: #fff"/>
          <path d="M223.92,61.85a12.47,12.47,0,0,1,6.5,1.83L254,78a12.51,12.51,0,0,1,0,21.37l-23.58,14.36a12.54,12.54,0,0,1-13,0L193.83,99.4a12.51,12.51,0,0,1,0-21.37l23.58-14.35a12.48,12.48,0,0,1,6.51-1.83m0-2A14.47,14.47,0,0,0,216.37,62L192.79,76.33a14.5,14.5,0,0,0,0,24.78l23.58,14.36a14.54,14.54,0,0,0,15.09,0L255,101.11a14.5,14.5,0,0,0,0-24.78L231.46,62a14.46,14.46,0,0,0-7.54-2.12Z" style="fill: #bb6f96"/>
        </g>
        <g style="opacity: 0.36">
          <path d="M201.36,32a15.5,15.5,0,0,1,0-31h45.11a15.5,15.5,0,1,1,0,31Z" style="fill: #fff"/>
          <path d="M246.47,2A14.5,14.5,0,0,1,261,16.5h0A14.5,14.5,0,0,1,246.47,31H201.36a14.5,14.5,0,0,1-14.5-14.5h0A14.5,14.5,0,0,1,201.36,2h45.11m0-2H201.36a16.5,16.5,0,0,0,0,33h45.11a16.5,16.5,0,1,0,0-33Z" style="fill: #bb6f96"/>
        </g>
        <g>
          <path d="M216.94,17.22h-2l-.45,1.27h-.66l1.84-4.84h.56l1.85,4.84h-.65Zm-1.84-.52h1.65l-.83-2.26Z" style="fill: #52575b"/>
          <path d="M221.88,16.73a2.13,2.13,0,0,1-.38,1.32,1.19,1.19,0,0,1-1,.5,1.26,1.26,0,0,1-1.06-.48l0,.42h-.56v-5.1h.61v1.9a1.24,1.24,0,0,1,1-.46,1.23,1.23,0,0,1,1,.49,2.26,2.26,0,0,1,.37,1.36Zm-.61-.07a1.67,1.67,0,0,0-.25-1,.79.79,0,0,0-.69-.34.91.91,0,0,0-.88.56v1.56a.93.93,0,0,0,.88.56.79.79,0,0,0,.69-.34A1.8,1.8,0,0,0,221.27,16.66Z" style="fill: #52575b"/>
          <path d="M222.66,16.66a2.11,2.11,0,0,1,.21-.95,1.53,1.53,0,0,1,.58-.65,1.55,1.55,0,0,1,.84-.23,1.51,1.51,0,0,1,1.19.51,2,2,0,0,1,.45,1.35v0a2.2,2.2,0,0,1-.2.94,1.45,1.45,0,0,1-.57.65,1.69,1.69,0,0,1-2-.27,2,2,0,0,1-.45-1.35Zm.62.07a1.5,1.5,0,0,0,.28,1,.94.94,0,0,0,1.48,0,1.66,1.66,0,0,0,.28-1,1.58,1.58,0,0,0-.28-1,.92.92,0,0,0-.75-.37.86.86,0,0,0-.73.37A1.62,1.62,0,0,0,223.28,16.73Z" style="fill: #52575b"/>
          <path d="M228.59,15.45a1.39,1.39,0,0,0-.3,0,.81.81,0,0,0-.82.52v2.55h-.61V14.9h.6v.41a.94.94,0,0,1,.85-.48.5.5,0,0,1,.27.05Z" style="fill: #52575b"/>
          <path d="M230.37,14v.87H231v.47h-.67V17.6a.49.49,0,0,0,.09.32.35.35,0,0,0,.3.11,1.37,1.37,0,0,0,.3,0v.5a2,2,0,0,1-.48.06.76.76,0,0,1-.62-.25,1,1,0,0,1-.21-.7V15.37h-.65V14.9h.65V14Z" style="fill: #52575b"/>
        </g>
        <g style="opacity: 0.36">
          <path d="M201.36,176.72a15.5,15.5,0,0,1,0-31h45.11a15.5,15.5,0,1,1,0,31Z" style="fill: #fff"/>
          <path d="M246.47,146.72a14.5,14.5,0,0,1,14.5,14.5h0a14.5,14.5,0,0,1-14.5,14.5H201.36a14.5,14.5,0,0,1-14.5-14.5h0a14.5,14.5,0,0,1,14.5-14.5h45.11m0-2H201.36a16.5,16.5,0,0,0,0,33h45.11a16.5,16.5,0,1,0,0-33Z" style="fill: #bb6f96"/>
        </g>
        <rect id="159aabdf-6787-4692-bf0a-c024b779c632" data-name="&lt;Rectangle&gt;" x="194.76" y="154.03" width="58.31" height="14.37" rx="6.37" ry="6.37" style="fill: none;stroke: #6d9fc9;stroke-miterlimit: 10;stroke-dasharray: 4,2;opacity: 0.33"/>
        <g>
          <path d="M206.31,161.94h-2l-.45,1.26h-.66l1.85-4.83h.56l1.85,4.83h-.66Zm-1.83-.52h1.64l-.82-2.26Z" style="fill: #52575b"/>
          <path d="M211.25,161.45a2.17,2.17,0,0,1-.38,1.32,1.21,1.21,0,0,1-1,.5,1.31,1.31,0,0,1-1-.42v1.73h-.62v-5h.56l0,.4a1.27,1.27,0,0,1,1-.46,1.23,1.23,0,0,1,1,.48,2.2,2.2,0,0,1,.38,1.36Zm-.62-.07a1.52,1.52,0,0,0-.26-1,.82.82,0,0,0-.71-.35.88.88,0,0,0-.83.49v1.72a.91.91,0,0,0,.84.49.84.84,0,0,0,.7-.35A1.7,1.7,0,0,0,210.63,161.38Z" style="fill: #52575b"/>
          <path d="M215.23,161.45a2.17,2.17,0,0,1-.37,1.32,1.22,1.22,0,0,1-1,.5,1.31,1.31,0,0,1-1-.42v1.73h-.61v-5h.56l0,.4a1.26,1.26,0,0,1,1-.46,1.23,1.23,0,0,1,1,.48,2.14,2.14,0,0,1,.38,1.36Zm-.61-.07a1.59,1.59,0,0,0-.26-1,.82.82,0,0,0-.71-.35.91.91,0,0,0-.84.49v1.72a.92.92,0,0,0,.84.49.85.85,0,0,0,.71-.35A1.77,1.77,0,0,0,214.62,161.38Z" style="fill: #52575b"/>
          <path d="M216.83,163.2h-.62v-5.1h.62Z" style="fill: #52575b"/>
          <path d="M219.16,162.3l.83-2.69h.66l-1.45,4.15c-.22.6-.57.89-1.06.89H218l-.23,0v-.5l.17,0a.86.86,0,0,0,.49-.13.91.91,0,0,0,.28-.46l.14-.37-1.28-3.55h.67Z" style="fill: #52575b"/>
          <path d="M225.1,163.2a1,1,0,0,1-.09-.37,1.39,1.39,0,0,1-1,.44,1.24,1.24,0,0,1-.87-.3,1,1,0,0,1-.34-.76,1,1,0,0,1,.42-.87,2,2,0,0,1,1.2-.31h.6v-.29a.69.69,0,0,0-.19-.51.77.77,0,0,0-.57-.19.9.9,0,0,0-.55.17.47.47,0,0,0-.22.4h-.62a.84.84,0,0,1,.19-.52,1.32,1.32,0,0,1,.52-.4,1.71,1.71,0,0,1,.72-.14,1.4,1.4,0,0,1,1,.31,1.09,1.09,0,0,1,.36.85v1.65a2.09,2.09,0,0,0,.13.79v0Zm-1-.46a1.11,1.11,0,0,0,.55-.15.92.92,0,0,0,.37-.39v-.74h-.48c-.75,0-1.13.22-1.13.66a.55.55,0,0,0,.19.45A.76.76,0,0,0,224.08,162.74Z" style="fill: #52575b"/>
          <path d="M228.15,162.77a.88.88,0,0,0,.57-.2.65.65,0,0,0,.27-.5h.59a1.22,1.22,0,0,1-.22.59,1.32,1.32,0,0,1-.52.44,1.53,1.53,0,0,1-.69.17,1.48,1.48,0,0,1-1.17-.49,1.94,1.94,0,0,1-.43-1.34v-.1a2.12,2.12,0,0,1,.19-.93,1.44,1.44,0,0,1,.55-.64,1.6,1.6,0,0,1,.86-.22,1.44,1.44,0,0,1,1,.36,1.28,1.28,0,0,1,.43.94H229a.82.82,0,0,0-.84-.8.85.85,0,0,0-.73.34,1.58,1.58,0,0,0-.26,1v.12a1.53,1.53,0,0,0,.26,1A.85.85,0,0,0,228.15,162.77Z" style="fill: #52575b"/>
          <path d="M231.34,158.74v.87H232v.48h-.67v2.23a.49.49,0,0,0,.09.32.39.39,0,0,0,.31.11,1.3,1.3,0,0,0,.29,0v.49a1.62,1.62,0,0,1-.47.07.77.77,0,0,1-.63-.25,1.13,1.13,0,0,1-.2-.71v-2.22h-.66v-.48h.66v-.87Z" style="fill: #52575b"/>
          <path d="M232.82,158.66a.37.37,0,0,1,.09-.25.34.34,0,0,1,.27-.11.38.38,0,0,1,.28.11.39.39,0,0,1,0,.5.41.41,0,0,1-.28.1.37.37,0,0,1-.27-.1A.37.37,0,0,1,232.82,158.66Zm.67,4.54h-.62v-3.59h.62Z" style="fill: #52575b"/>
          <path d="M234.43,161.37a2.06,2.06,0,0,1,.21-.94,1.56,1.56,0,0,1,.58-.66,1.6,1.6,0,0,1,.84-.22,1.51,1.51,0,0,1,1.19.5,2,2,0,0,1,.45,1.35v0a2.06,2.06,0,0,1-.2.94,1.5,1.5,0,0,1-.57.65,1.65,1.65,0,0,1-.86.23,1.49,1.49,0,0,1-1.18-.51,1.94,1.94,0,0,1-.46-1.34Zm.62.08a1.5,1.5,0,0,0,.28,1,.88.88,0,0,0,.74.36.89.89,0,0,0,.75-.37,1.71,1.71,0,0,0,.27-1,1.49,1.49,0,0,0-.28-1,.93.93,0,0,0-1.48,0A1.72,1.72,0,0,0,235.05,161.45Z" style="fill: #52575b"/>
          <path d="M239.21,159.61l0,.45a1.32,1.32,0,0,1,1.08-.51c.76,0,1.14.42,1.15,1.28v2.37h-.62v-2.37a.82.82,0,0,0-.18-.58.7.7,0,0,0-.54-.18.85.85,0,0,0-.52.16,1.1,1.1,0,0,0-.36.41v2.56h-.61v-3.59Z" style="fill: #52575b"/>
        </g>
        <g style="opacity: 0.36">
          <path d="M78.54,32a15.5,15.5,0,0,1,0-31h45.11a15.5,15.5,0,0,1,0,31Z" style="fill: #fff"/>
          <path d="M123.65,2a14.5,14.5,0,0,1,14.5,14.5h0A14.5,14.5,0,0,1,123.65,31H78.54A14.5,14.5,0,0,1,64,16.5h0A14.5,14.5,0,0,1,78.54,2h45.11m0-2H78.54a16.5,16.5,0,0,0,0,33h45.11a16.5,16.5,0,0,0,0-33Z" style="fill: #bb6f96"/>
        </g>
        <g>
          <path d="M80.19,14.17a1.43,1.43,0,0,1-.68.52,2.74,2.74,0,0,1-1,.18,2,2,0,0,1-1-.28,1.8,1.8,0,0,1-.7-.79,2.6,2.6,0,0,1-.26-1.18V12.2A2.56,2.56,0,0,1,77,10.5a1.77,1.77,0,0,1,1.43-.6,1.84,1.84,0,0,1,1.22.39,1.67,1.67,0,0,1,.56,1.1h-.63a1.06,1.06,0,0,0-1.15-1,1.14,1.14,0,0,0-1,.45,2.2,2.2,0,0,0-.33,1.31v.39a2.05,2.05,0,0,0,.37,1.3,1.21,1.21,0,0,0,1,.48,2.28,2.28,0,0,0,.62-.08,1.13,1.13,0,0,0,.45-.27V12.92H78.44v-.53h1.75Z" style="fill: #52575b"/>
          <path d="M82.82,14.87a1.57,1.57,0,0,1-1.19-.48,1.81,1.81,0,0,1-.46-1.28V13a2.11,2.11,0,0,1,.21-1,1.6,1.6,0,0,1,.57-.66,1.41,1.41,0,0,1,.79-.24,1.37,1.37,0,0,1,1.09.46,2,2,0,0,1,.39,1.33v.25H81.79a1.27,1.27,0,0,0,.31.86,1,1,0,0,0,.75.33,1.11,1.11,0,0,0,.56-.14,1.18,1.18,0,0,0,.39-.35l.38.29A1.52,1.52,0,0,1,82.82,14.87Zm-.08-3.22a.83.83,0,0,0-.62.27,1.29,1.29,0,0,0-.31.76h1.8v0a1.17,1.17,0,0,0-.25-.72A.77.77,0,0,0,82.74,11.65Z" style="fill: #52575b"/>
          <path d="M85.71,11.21l0,.45a1.31,1.31,0,0,1,1.07-.52c.76,0,1.14.43,1.15,1.29V14.8h-.61V12.42a.9.9,0,0,0-.18-.57.75.75,0,0,0-.55-.19.94.94,0,0,0-.52.16,1.1,1.1,0,0,0-.35.42V14.8h-.62V11.21Z" style="fill: #52575b"/>
          <path d="M90.52,14.87a1.57,1.57,0,0,1-1.19-.48,1.81,1.81,0,0,1-.46-1.28V13a2.11,2.11,0,0,1,.21-1,1.67,1.67,0,0,1,.57-.66,1.42,1.42,0,0,1,.8-.24,1.35,1.35,0,0,1,1.08.46,2,2,0,0,1,.39,1.33v.25H89.49a1.27,1.27,0,0,0,.31.86,1,1,0,0,0,.75.33,1.11,1.11,0,0,0,.56-.14,1.18,1.18,0,0,0,.39-.35l.38.29A1.52,1.52,0,0,1,90.52,14.87Zm-.07-3.22a.83.83,0,0,0-.63.27,1.29,1.29,0,0,0-.31.76h1.8v0a1.17,1.17,0,0,0-.25-.72A.75.75,0,0,0,90.45,11.65Z" style="fill: #52575b"/>
          <path d="M94.56,11.76l-.3,0a.81.81,0,0,0-.82.51V14.8h-.62V11.21h.6v.41a1,1,0,0,1,.86-.48.62.62,0,0,1,.27,0Z" style="fill: #52575b"/>
          <path d="M97.5,14.8a1.49,1.49,0,0,1-.08-.38,1.38,1.38,0,0,1-1,.45,1.28,1.28,0,0,1-.87-.3,1,1,0,0,1-.34-.76,1,1,0,0,1,.43-.88,2,2,0,0,1,1.2-.31h.6v-.28a.69.69,0,0,0-.2-.51.73.73,0,0,0-.56-.19.88.88,0,0,0-.55.16.5.5,0,0,0-.23.41h-.61a.82.82,0,0,1,.19-.52,1.29,1.29,0,0,1,.51-.4,1.72,1.72,0,0,1,.72-.15,1.47,1.47,0,0,1,1,.31,1.16,1.16,0,0,1,.36.86V14a1.94,1.94,0,0,0,.13.79v.05Zm-1-.47a1.06,1.06,0,0,0,.55-.15,1,1,0,0,0,.38-.38v-.74h-.48c-.76,0-1.13.22-1.13.66a.55.55,0,0,0,.19.45A.72.72,0,0,0,96.48,14.33Z" style="fill: #52575b"/>
          <path d="M100,10.34v.87h.67v.47H100v2.23a.5.5,0,0,0,.09.33.36.36,0,0,0,.3.11l.29,0v.49a1.58,1.58,0,0,1-.47.07.79.79,0,0,1-.62-.25,1.07,1.07,0,0,1-.21-.71V11.68H98.7v-.47h.65v-.87Z" style="fill: #52575b"/>
          <path d="M102.89,14.87a1.55,1.55,0,0,1-1.18-.48,1.76,1.76,0,0,1-.46-1.28V13a2.24,2.24,0,0,1,.2-1,1.67,1.67,0,0,1,.57-.66,1.44,1.44,0,0,1,.8-.24,1.38,1.38,0,0,1,1.09.46,2,2,0,0,1,.39,1.33v.25h-2.44a1.27,1.27,0,0,0,.31.86,1,1,0,0,0,.76.33,1.07,1.07,0,0,0,.55-.14,1.18,1.18,0,0,0,.39-.35l.38.29A1.5,1.5,0,0,1,102.89,14.87Zm-.07-3.22a.83.83,0,0,0-.63.27,1.36,1.36,0,0,0-.31.76h1.8v0a1.17,1.17,0,0,0-.25-.72A.75.75,0,0,0,102.82,11.65Z" style="fill: #52575b"/>
          <path d="M108.91,14.8a1.1,1.1,0,0,1-.09-.38,1.37,1.37,0,0,1-1,.45,1.24,1.24,0,0,1-.87-.3,1,1,0,0,1-.34-.76,1,1,0,0,1,.42-.88,2.09,2.09,0,0,1,1.2-.31h.6v-.28a.73.73,0,0,0-.19-.51.77.77,0,0,0-.57-.19.9.9,0,0,0-.55.16.49.49,0,0,0-.22.41h-.62a.82.82,0,0,1,.19-.52,1.32,1.32,0,0,1,.52-.4,1.66,1.66,0,0,1,.72-.15,1.46,1.46,0,0,1,1,.31,1.16,1.16,0,0,1,.36.86V14a2.13,2.13,0,0,0,.13.79v.05Zm-1-.47a1,1,0,0,0,.54-.15.93.93,0,0,0,.38-.38v-.74h-.48c-.75,0-1.13.22-1.13.66a.55.55,0,0,0,.19.45A.75.75,0,0,0,107.89,14.33Z" style="fill: #52575b"/>
          <path d="M112.65,11.21l0,.45a1.32,1.32,0,0,1,1.08-.52c.75,0,1.14.43,1.14,1.29V14.8h-.61V12.42a.8.8,0,0,0-.18-.57.7.7,0,0,0-.54-.19,1,1,0,0,0-.53.16,1.19,1.19,0,0,0-.35.42V14.8h-.61V11.21Z" style="fill: #52575b"/>
          <path d="M117.47,14.87a1.56,1.56,0,0,1-1.19-.48,1.76,1.76,0,0,1-.46-1.28V13a2.24,2.24,0,0,1,.2-1,1.67,1.67,0,0,1,.57-.66,1.44,1.44,0,0,1,.8-.24,1.37,1.37,0,0,1,1.09.46,2,2,0,0,1,.39,1.33v.25h-2.44a1.32,1.32,0,0,0,.31.86,1,1,0,0,0,.76.33,1,1,0,0,0,.55-.14,1.31,1.31,0,0,0,.4-.35l.37.29A1.49,1.49,0,0,1,117.47,14.87Zm-.08-3.22a.8.8,0,0,0-.62.27,1.3,1.3,0,0,0-.32.76h1.8v0a1.11,1.11,0,0,0-.25-.72A.74.74,0,0,0,117.39,11.65Z" style="fill: #52575b"/>
          <path d="M122.86,14l.69-2.74h.62l-1,3.59h-.5l-.87-2.72-.85,2.72h-.5l-1-3.59H120l.71,2.69.84-2.69H122Z" style="fill: #52575b"/>
          <path d="M78,23a1.57,1.57,0,0,1-1.19-.48,1.77,1.77,0,0,1-.46-1.29v-.11a2.08,2.08,0,0,1,.21-.95,1.53,1.53,0,0,1,.57-.66,1.41,1.41,0,0,1,.79-.24,1.37,1.37,0,0,1,1.09.46,2,2,0,0,1,.39,1.32v.26H77a1.24,1.24,0,0,0,.31.86,1,1,0,0,0,.75.32,1,1,0,0,0,.55-.13A1.46,1.46,0,0,0,79,22l.37.29A1.51,1.51,0,0,1,78,23Zm-.08-3.22a.81.81,0,0,0-.62.27,1.29,1.29,0,0,0-.31.76h1.8v-.05a1.23,1.23,0,0,0-.26-.73A.76.76,0,0,0,77.94,19.81Z" style="fill: #52575b"/>
          <path d="M81.43,20.68l.8-1.31h.71l-1.17,1.77L83,23h-.71l-.83-1.34L80.61,23h-.72l1.22-1.82-1.18-1.77h.71Z" style="fill: #52575b"/>
          <path d="M85.05,22.52a.9.9,0,0,0,.58-.19.74.74,0,0,0,.27-.5h.58a1.14,1.14,0,0,1-.21.59,1.49,1.49,0,0,1-.52.44,1.54,1.54,0,0,1-.7.17,1.5,1.5,0,0,1-1.16-.49,2,2,0,0,1-.44-1.34v-.11a2.12,2.12,0,0,1,.2-.93,1.47,1.47,0,0,1,.55-.63,1.56,1.56,0,0,1,.85-.23,1.47,1.47,0,0,1,1,.36,1.33,1.33,0,0,1,.42.94H85.9a.84.84,0,0,0-.26-.57.83.83,0,0,0-.59-.22.86.86,0,0,0-.72.33,1.55,1.55,0,0,0-.26,1v.11a1.55,1.55,0,0,0,.25,1A.88.88,0,0,0,85.05,22.52Z" style="fill: #52575b"/>
          <path d="M88,19.8A1.32,1.32,0,0,1,89,19.3c.76,0,1.14.43,1.15,1.29V23h-.61V20.58a.88.88,0,0,0-.18-.57.7.7,0,0,0-.54-.19,1,1,0,0,0-.53.16,1.1,1.1,0,0,0-.35.42V23h-.61v-5.1H88Z" style="fill: #52575b"/>
          <path d="M93.44,23a1.93,1.93,0,0,1-.09-.38,1.34,1.34,0,0,1-1,.45,1.28,1.28,0,0,1-.87-.3,1,1,0,0,1-.34-.77,1,1,0,0,1,.43-.87,2,2,0,0,1,1.2-.31h.59V20.5a.67.67,0,0,0-.19-.51.77.77,0,0,0-.57-.19A.9.9,0,0,0,92,20a.49.49,0,0,0-.22.4h-.62a.9.9,0,0,1,.19-.52,1.4,1.4,0,0,1,.52-.39,1.72,1.72,0,0,1,.72-.15,1.45,1.45,0,0,1,1,.31,1.11,1.11,0,0,1,.37.86v1.65a2.15,2.15,0,0,0,.12.79V23Zm-1-.47a1.08,1.08,0,0,0,.55-.15.87.87,0,0,0,.37-.39v-.73h-.48c-.75,0-1.13.22-1.13.66a.56.56,0,0,0,.2.45A.72.72,0,0,0,92.42,22.49Z" style="fill: #52575b"/>
          <path d="M95.65,19.37l0,.45a1.29,1.29,0,0,1,1.07-.52c.76,0,1.14.43,1.15,1.29V23h-.61V20.58A.78.78,0,0,0,97.1,20a.7.7,0,0,0-.54-.19A1,1,0,0,0,96,20a1.1,1.1,0,0,0-.35.42V23h-.61V19.37Z" style="fill: #52575b"/>
          <path d="M98.82,21.13a2.08,2.08,0,0,1,.39-1.33,1.34,1.34,0,0,1,2.06,0l0-.4h.56v3.5a1.45,1.45,0,0,1-.42,1.1,1.5,1.5,0,0,1-1.11.4,1.85,1.85,0,0,1-.76-.16,1.28,1.28,0,0,1-.56-.46l.31-.37a1.21,1.21,0,0,0,1,.49.87.87,0,0,0,.95-1V22.6a1.28,1.28,0,0,1-1,.43,1.22,1.22,0,0,1-1-.51A2.23,2.23,0,0,1,98.82,21.13Zm.62.07a1.59,1.59,0,0,0,.25,1,.82.82,0,0,0,.7.35.91.91,0,0,0,.85-.53V20.34a.91.91,0,0,0-.85-.52.82.82,0,0,0-.7.35A1.82,1.82,0,0,0,99.44,21.2Z" style="fill: #52575b"/>
          <path d="M104.44,23a1.57,1.57,0,0,1-1.19-.48,1.82,1.82,0,0,1-.46-1.29v-.11a2.08,2.08,0,0,1,.21-.95,1.53,1.53,0,0,1,.57-.66,1.41,1.41,0,0,1,.79-.24,1.37,1.37,0,0,1,1.09.46,2,2,0,0,1,.39,1.32v.26h-2.43a1.29,1.29,0,0,0,.31.86,1,1,0,0,0,.75.32,1,1,0,0,0,.55-.13,1.22,1.22,0,0,0,.4-.35l.37.29A1.51,1.51,0,0,1,104.44,23Zm-.08-3.22a.83.83,0,0,0-.62.27,1.29,1.29,0,0,0-.31.76h1.8v-.05a1.17,1.17,0,0,0-.26-.73A.76.76,0,0,0,104.36,19.81Z" style="fill: #52575b"/>
          <path d="M110.45,23a1.49,1.49,0,0,1-.08-.38,1.38,1.38,0,0,1-1,.45,1.28,1.28,0,0,1-.87-.3,1.07,1.07,0,0,1,.09-1.64,2,2,0,0,1,1.2-.31h.6V20.5a.68.68,0,0,0-.2-.51.75.75,0,0,0-.56-.19A.93.93,0,0,0,109,20a.51.51,0,0,0-.22.4h-.62a.85.85,0,0,1,.2-.52,1.36,1.36,0,0,1,.51-.39,1.72,1.72,0,0,1,.72-.15,1.47,1.47,0,0,1,1,.31,1.14,1.14,0,0,1,.36.86v1.65a1.94,1.94,0,0,0,.13.79V23Zm-1-.47a1.06,1.06,0,0,0,.55-.15,1,1,0,0,0,.38-.39v-.73h-.49c-.75,0-1.12.22-1.12.66a.55.55,0,0,0,.19.45A.72.72,0,0,0,109.43,22.49Z" style="fill: #52575b"/>
          <path d="M113.5,22.52a.92.92,0,0,0,.58-.19.74.74,0,0,0,.27-.5h.58a1.14,1.14,0,0,1-.21.59,1.49,1.49,0,0,1-.52.44,1.54,1.54,0,0,1-.7.17,1.49,1.49,0,0,1-1.16-.49,2,2,0,0,1-.44-1.34v-.11a2.12,2.12,0,0,1,.2-.93,1.41,1.41,0,0,1,.55-.63,1.56,1.56,0,0,1,.85-.23,1.43,1.43,0,0,1,1,.36,1.3,1.3,0,0,1,.43.94h-.58a.89.89,0,0,0-.26-.57.83.83,0,0,0-.59-.22.86.86,0,0,0-.72.33,1.55,1.55,0,0,0-.26,1v.11a1.55,1.55,0,0,0,.25,1A.88.88,0,0,0,113.5,22.52Z" style="fill: #52575b"/>
          <path d="M116.7,18.5v.87h.67v.47h-.67v2.23a.57.57,0,0,0,.08.33.4.4,0,0,0,.31.11l.29,0V23a2,2,0,0,1-.47.07.79.79,0,0,1-.62-.25,1.07,1.07,0,0,1-.21-.71V19.84h-.65v-.47h.65V18.5Z" style="fill: #52575b"/>
          <path d="M118.18,18.42a.39.39,0,0,1,.09-.26.41.41,0,0,1,.54,0,.39.39,0,0,1,.09.26.34.34,0,0,1-.09.24.41.41,0,0,1-.54,0A.34.34,0,0,1,118.18,18.42Zm.66,4.54h-.61V19.37h.61Z" style="fill: #52575b"/>
          <path d="M119.79,21.13a2.11,2.11,0,0,1,.21-.95,1.51,1.51,0,0,1,.57-.65,1.61,1.61,0,0,1,.85-.23,1.53,1.53,0,0,1,1.19.51,2,2,0,0,1,.45,1.35v0a2.16,2.16,0,0,1-.2.94,1.57,1.57,0,0,1-1.43.89,1.51,1.51,0,0,1-1.19-.51,2,2,0,0,1-.45-1.35Zm.62.07a1.56,1.56,0,0,0,.27,1,.91.91,0,0,0,.75.36.88.88,0,0,0,.74-.36,1.73,1.73,0,0,0,.28-1,1.54,1.54,0,0,0-.29-1,.93.93,0,0,0-1.47,0A1.62,1.62,0,0,0,120.41,21.2Z" style="fill: #52575b"/>
          <path d="M124.57,19.37l0,.45a1.29,1.29,0,0,1,1.07-.52c.76,0,1.14.43,1.15,1.29V23h-.61V20.58A.78.78,0,0,0,126,20a.7.7,0,0,0-.54-.19A1,1,0,0,0,125,20a1.1,1.1,0,0,0-.35.42V23H124V19.37Z" style="fill: #52575b"/>
        </g>
        <g>
          <path d="M202.31,90.7h-.64V85.87h.64Z" style="fill: #52575b"/>
          <path d="M205.6,89.75a.47.47,0,0,0-.19-.39,1.69,1.69,0,0,0-.65-.23,3.38,3.38,0,0,1-.74-.24,1.17,1.17,0,0,1-.41-.33.86.86,0,0,1-.13-.46.93.93,0,0,1,.38-.75,1.44,1.44,0,0,1,.95-.3,1.49,1.49,0,0,1,1,.31,1,1,0,0,1,.38.81h-.62a.56.56,0,0,0-.21-.44.8.8,0,0,0-.54-.18.86.86,0,0,0-.53.15.45.45,0,0,0-.18.38.37.37,0,0,0,.17.33,2.08,2.08,0,0,0,.64.22,3.78,3.78,0,0,1,.74.24,1.18,1.18,0,0,1,.43.35.85.85,0,0,1,.13.49.9.9,0,0,1-.38.77,1.65,1.65,0,0,1-1,.29,1.81,1.81,0,0,1-.76-.15,1.18,1.18,0,0,1-.52-.43,1,1,0,0,1-.19-.59H204a.66.66,0,0,0,.25.49,1,1,0,0,0,.61.18,1,1,0,0,0,.56-.14A.44.44,0,0,0,205.6,89.75Z" style="fill: #52575b"/>
          <path d="M210.91,90.7a1.39,1.39,0,0,1-.08-.37,1.4,1.4,0,0,1-1,.44,1.29,1.29,0,0,1-.88-.3,1,1,0,0,1-.34-.76,1,1,0,0,1,.43-.87,2,2,0,0,1,1.2-.31h.6v-.29a.73.73,0,0,0-.19-.51.77.77,0,0,0-.57-.19.9.9,0,0,0-.55.17.49.49,0,0,0-.23.4h-.61a.84.84,0,0,1,.19-.52,1.32,1.32,0,0,1,.52-.4,1.64,1.64,0,0,1,.71-.14,1.42,1.42,0,0,1,1,.31,1.12,1.12,0,0,1,.36.85v1.65a1.91,1.91,0,0,0,.13.79v0Zm-1-.46a1,1,0,0,0,.54-.15.89.89,0,0,0,.38-.39V89h-.48c-.76,0-1.13.22-1.13.66a.55.55,0,0,0,.19.45A.74.74,0,0,0,209.9,90.24Z" style="fill: #52575b"/>
          <path d="M214,90.27a.88.88,0,0,0,.57-.2.72.72,0,0,0,.27-.5h.58a1.11,1.11,0,0,1-.21.59,1.32,1.32,0,0,1-.52.44,1.41,1.41,0,0,1-.69.17,1.48,1.48,0,0,1-1.17-.49,1.94,1.94,0,0,1-.43-1.34v-.1a2.12,2.12,0,0,1,.19-.93,1.44,1.44,0,0,1,.55-.64,1.56,1.56,0,0,1,.85-.22,1.47,1.47,0,0,1,1,.36,1.27,1.27,0,0,1,.42.94h-.58a.85.85,0,0,0-.26-.58.82.82,0,0,0-.59-.22.84.84,0,0,0-.72.34,1.58,1.58,0,0,0-.26,1V89a1.53,1.53,0,0,0,.26,1A.85.85,0,0,0,214,90.27Z" style="fill: #52575b"/>
          <path d="M217.16,86.24v.87h.67v.48h-.67v2.23a.49.49,0,0,0,.09.32.38.38,0,0,0,.3.11,1.23,1.23,0,0,0,.29,0v.49a1.53,1.53,0,0,1-.47.07.76.76,0,0,1-.62-.25,1.06,1.06,0,0,1-.21-.71V87.59h-.65v-.48h.65v-.87Z" style="fill: #52575b"/>
          <path d="M218.64,86.16a.37.37,0,0,1,.09-.25.39.39,0,0,1,.54,0,.36.36,0,0,1,0,.5.41.41,0,0,1-.54,0A.37.37,0,0,1,218.64,86.16Zm.66,4.54h-.61V87.11h.61Z" style="fill: #52575b"/>
          <path d="M220.25,88.87a2.06,2.06,0,0,1,.21-.94,1.49,1.49,0,0,1,1.42-.88,1.54,1.54,0,0,1,1.19.5,2,2,0,0,1,.45,1.35v0a2.2,2.2,0,0,1-.2.94,1.57,1.57,0,0,1-.57.65,1.65,1.65,0,0,1-.86.23,1.53,1.53,0,0,1-1.19-.51,1.94,1.94,0,0,1-.45-1.34Zm.62.08a1.5,1.5,0,0,0,.28,1,.88.88,0,0,0,.74.36.86.86,0,0,0,.74-.37,1.62,1.62,0,0,0,.28-1,1.55,1.55,0,0,0-.28-1,.89.89,0,0,0-.75-.37.87.87,0,0,0-.73.36A1.65,1.65,0,0,0,220.87,89Z" style="fill: #52575b"/>
          <path d="M225,87.11l0,.45a1.3,1.3,0,0,1,1.07-.51c.76,0,1.15.42,1.15,1.28V90.7h-.61V88.33a.82.82,0,0,0-.18-.58.73.73,0,0,0-.54-.18.88.88,0,0,0-.53.16,1.08,1.08,0,0,0-.35.41V90.7h-.61V87.11Z" style="fill: #52575b"/>
          <path d="M231.07,89.87l.89-2.76h.62L231.3,90.7h-.47l-1.3-3.59h.62Z" style="fill: #52575b"/>
          <path d="M235.46,90.7a1,1,0,0,1-.09-.37,1.4,1.4,0,0,1-1,.44,1.24,1.24,0,0,1-.87-.3,1,1,0,0,1-.34-.76,1,1,0,0,1,.42-.87,2,2,0,0,1,1.2-.31h.6v-.29a.69.69,0,0,0-.19-.51.77.77,0,0,0-.57-.19.9.9,0,0,0-.55.17.47.47,0,0,0-.22.4h-.62a.84.84,0,0,1,.19-.52,1.32,1.32,0,0,1,.52-.4,1.71,1.71,0,0,1,.72-.14,1.41,1.41,0,0,1,1,.31,1.09,1.09,0,0,1,.36.85v1.65a2.09,2.09,0,0,0,.13.79v0Zm-1-.46a1.11,1.11,0,0,0,.55-.15.92.92,0,0,0,.37-.39V89h-.48c-.75,0-1.13.22-1.13.66a.55.55,0,0,0,.19.45A.76.76,0,0,0,234.44,90.24Z" style="fill: #52575b"/>
          <path d="M237.72,90.7h-.61V85.6h.61Z" style="fill: #52575b"/>
          <path d="M238.82,86.16a.37.37,0,0,1,.1-.25.39.39,0,0,1,.54,0,.39.39,0,0,1,0,.5.41.41,0,0,1-.54,0A.37.37,0,0,1,238.82,86.16Zm.67,4.54h-.62V87.11h.62Z" style="fill: #52575b"/>
          <path d="M240.46,88.88a2.1,2.1,0,0,1,.39-1.33,1.22,1.22,0,0,1,1-.5,1.23,1.23,0,0,1,1,.43V85.6h.62v5.1h-.57l0-.38a1.24,1.24,0,0,1-1,.45,1.22,1.22,0,0,1-1-.51,2.15,2.15,0,0,1-.39-1.34Zm.61.07a1.56,1.56,0,0,0,.25,1,.82.82,0,0,0,.7.35.9.9,0,0,0,.85-.53V88.08a.89.89,0,0,0-.84-.51.82.82,0,0,0-.71.35A1.72,1.72,0,0,0,241.07,89Z" style="fill: #52575b"/>
          <path d="M245.31,89.34a1.79,1.79,0,0,1,.09-.63,1.48,1.48,0,0,1,.34-.5l.43-.45a1,1,0,0,0,.28-.68.77.77,0,0,0-.18-.54.69.69,0,0,0-.53-.2.81.81,0,0,0-.55.18.63.63,0,0,0-.2.48h-.62a1.15,1.15,0,0,1,.39-.87,1.43,1.43,0,0,1,1-.33,1.39,1.39,0,0,1,1,.34,1.24,1.24,0,0,1,.35.92,1.68,1.68,0,0,1-.54,1.15l-.36.36a1.05,1.05,0,0,0-.25.77Zm0,1a.37.37,0,0,1,.09-.25.37.37,0,0,1,.28-.1.35.35,0,0,1,.27.1.37.37,0,0,1,.09.25.33.33,0,0,1-.36.35.37.37,0,0,1-.28-.1A.35.35,0,0,1,245.28,90.39Z" style="fill: #52575b"/>
        </g>
        <g>
          <path d="M99.93,31V73.44a15.7,15.7,0,0,0,15.74,15.7l65-.17" style="fill: none;stroke: #bb6f96;stroke-miterlimit: 10"/>
          <polygon points="179.69 92.46 185.72 88.96 179.67 85.48 179.69 92.46" style="fill: #bb6f96"/>
        </g>
        <g>
          <line x1="223.88" y1="115.58" x2="223.95" y2="139.89" style="fill: none;stroke: #bb6f96;stroke-miterlimit: 10"/>
          <polygon points="220.45 138.88 223.96 144.91 227.43 138.86 220.45 138.88" style="fill: #bb6f96"/>
        </g>
        <g>
          <line x1="223.92" y1="61.91" x2="223.85" y2="38.17" style="fill: none;stroke: #bb6f96;stroke-miterlimit: 10"/>
          <polygon points="227.34 39.18 223.84 33.14 220.36 39.2 227.34 39.18" style="fill: #bb6f96"/>
        </g>
        <g>
          <path d="M91.58,141.85a3.06,3.06,0,0,1-1.19-.58,1.1,1.1,0,0,1-.37-.85,1.14,1.14,0,0,1,.46-.94,1.78,1.78,0,0,1,1.18-.38,2,2,0,0,1,.89.2,1.35,1.35,0,0,1,.6.53,1.29,1.29,0,0,1,.22.74h-.64a.88.88,0,0,0-.28-.69,1.35,1.35,0,0,0-1.52,0,.69.69,0,0,0-.27.58.62.62,0,0,0,.25.5,2.34,2.34,0,0,0,.86.37,4.13,4.13,0,0,1,.94.38,1.34,1.34,0,0,1,.5.47,1.22,1.22,0,0,1,.17.64,1.13,1.13,0,0,1-.46.95,2,2,0,0,1-1.23.35,2.24,2.24,0,0,1-.93-.19,1.53,1.53,0,0,1-.66-.53,1.23,1.23,0,0,1-.23-.75h.64a.82.82,0,0,0,.32.69,1.36,1.36,0,0,0,.86.26,1.25,1.25,0,0,0,.78-.21.72.72,0,0,0,0-1.11A2.79,2.79,0,0,0,91.58,141.85Z" style="fill: #52575b"/>
          <path d="M95.28,139.54v.87H96v.48h-.67v2.23a.49.49,0,0,0,.09.32.39.39,0,0,0,.31.11l.29,0V144a1.58,1.58,0,0,1-.47.07.75.75,0,0,1-.62-.25,1.07,1.07,0,0,1-.21-.71v-2.22H94v-.48h.66v-.87Z" style="fill: #52575b"/>
          <path d="M99,144a1,1,0,0,1-.09-.38,1.34,1.34,0,0,1-1,.45,1.26,1.26,0,0,1-.87-.3,1,1,0,0,1-.34-.76,1,1,0,0,1,.42-.87,2,2,0,0,1,1.2-.32h.6v-.28a.69.69,0,0,0-.19-.51.77.77,0,0,0-.57-.19.84.84,0,0,0-.55.17.47.47,0,0,0-.22.4h-.62a.82.82,0,0,1,.19-.52,1.32,1.32,0,0,1,.52-.4,1.72,1.72,0,0,1,.72-.15,1.45,1.45,0,0,1,1,.31,1.13,1.13,0,0,1,.37.86v1.65a2.15,2.15,0,0,0,.12.79V144Zm-1-.47a1.21,1.21,0,0,0,.55-.14.92.92,0,0,0,.37-.39v-.74h-.48c-.75,0-1.13.22-1.13.66a.59.59,0,0,0,.19.45A.75.75,0,0,0,98,143.53Z" style="fill: #52575b"/>
          <path d="M101.48,139.54v.87h.67v.48h-.67v2.23a.49.49,0,0,0,.09.32.39.39,0,0,0,.31.11l.29,0V144a1.58,1.58,0,0,1-.47.07.78.78,0,0,1-.63-.25,1.13,1.13,0,0,1-.2-.71v-2.22h-.66v-.48h.66v-.87Z" style="fill: #52575b"/>
          <path d="M104.41,144.07a1.57,1.57,0,0,1-1.19-.48,1.76,1.76,0,0,1-.46-1.28v-.12a2.11,2.11,0,0,1,.21-.95,1.53,1.53,0,0,1,.57-.66,1.41,1.41,0,0,1,.79-.24,1.34,1.34,0,0,1,1.09.47,2,2,0,0,1,.39,1.32v.25h-2.43a1.27,1.27,0,0,0,.31.86,1,1,0,0,0,.75.33,1,1,0,0,0,.55-.14,1.12,1.12,0,0,0,.4-.35l.37.3A1.5,1.5,0,0,1,104.41,144.07Zm-.08-3.22a.81.81,0,0,0-.62.27,1.29,1.29,0,0,0-.31.76h1.8v0a1.17,1.17,0,0,0-.26-.72A.74.74,0,0,0,104.33,140.85Z" style="fill: #52575b"/>
          <path d="M112,144h-.64l-2.43-3.72V144h-.64v-4.83h.64l2.44,3.74v-3.74H112Z" style="fill: #52575b"/>
        </g>
        <g>
          <path d="M81.69,161.84v1.89h-.64V158.9h1.79a1.8,1.8,0,0,1,1.24.4,1.38,1.38,0,0,1,.45,1.08,1.35,1.35,0,0,1-.44,1.08,1.88,1.88,0,0,1-1.26.38Zm0-.52h1.15a1.14,1.14,0,0,0,.78-.24.88.88,0,0,0,.27-.7.9.9,0,0,0-.27-.69,1.1,1.1,0,0,0-.75-.27H81.69Z" style="fill: #52575b"/>
          <path d="M87.36,163.73h-.62v-4.09l-1.24.45v-.55l1.76-.66h.1Z" style="fill: #52575b"/>
        </g>
        <g>
          <path d="M96.94,161.84v1.89H96.3V158.9h1.79a1.8,1.8,0,0,1,1.24.4,1.38,1.38,0,0,1,.45,1.08,1.35,1.35,0,0,1-.44,1.08,1.88,1.88,0,0,1-1.26.38Zm0-.52h1.15a1.14,1.14,0,0,0,.78-.24.88.88,0,0,0,.27-.7.9.9,0,0,0-.27-.69,1.1,1.1,0,0,0-.75-.27H96.94Z" style="fill: #52575b"/>
          <path d="M103.88,163.73h-3.17v-.44l1.67-1.86a4.56,4.56,0,0,0,.52-.68,1.21,1.21,0,0,0,.14-.55.88.88,0,0,0-.23-.62.82.82,0,0,0-.61-.24.94.94,0,0,0-.72.26,1,1,0,0,0-.25.72h-.61a1.43,1.43,0,0,1,.43-1.08,1.6,1.6,0,0,1,1.15-.41,1.5,1.5,0,0,1,1.06.36,1.2,1.2,0,0,1,.39.94,2.77,2.77,0,0,1-.91,1.7l-1.29,1.4h2.43Z" style="fill: #52575b"/>
        </g>
        <g>
          <path d="M112.26,161.84v1.89h-.64V158.9h1.79a1.78,1.78,0,0,1,1.24.4,1.38,1.38,0,0,1,.45,1.08,1.35,1.35,0,0,1-.44,1.08,1.88,1.88,0,0,1-1.26.38Zm0-.52h1.15a1.14,1.14,0,0,0,.78-.24.88.88,0,0,0,.27-.7.9.9,0,0,0-.27-.69,1.1,1.1,0,0,0-.75-.27h-1.18Z" style="fill: #52575b"/>
          <path d="M116.9,161h.46a1.06,1.06,0,0,0,.69-.23.79.79,0,0,0,.25-.6.75.75,0,0,0-.85-.85.86.86,0,0,0-.63.22.82.82,0,0,0-.24.61H116a1.24,1.24,0,0,1,.42-1,1.56,1.56,0,0,1,1.07-.38,1.51,1.51,0,0,1,1.07.36,1.33,1.33,0,0,1,.39,1,1.11,1.11,0,0,1-.2.61,1.17,1.17,0,0,1-.56.44,1.27,1.27,0,0,1,.62.42,1.2,1.2,0,0,1,.21.72,1.33,1.33,0,0,1-.42,1,1.82,1.82,0,0,1-2.21,0,1.21,1.21,0,0,1-.43-1h.62a.78.78,0,0,0,.25.61,1.09,1.09,0,0,0,1.34,0,.9.9,0,0,0,.24-.67.83.83,0,0,0-.26-.65,1.1,1.1,0,0,0-.75-.23h-.46Z" style="fill: #52575b"/>
        </g>
        <g>
          <path d="M332,141.28a2.92,2.92,0,0,1-1.19-.58,1.11,1.11,0,0,1-.38-.85,1.15,1.15,0,0,1,.46-.94,1.8,1.8,0,0,1,1.19-.37,1.93,1.93,0,0,1,.88.19,1.44,1.44,0,0,1,.61.53,1.38,1.38,0,0,1,.21.74h-.64a.88.88,0,0,0-.28-.69,1.11,1.11,0,0,0-.78-.25,1.23,1.23,0,0,0-.74.2.69.69,0,0,0-.26.58.6.6,0,0,0,.25.5,2.44,2.44,0,0,0,.85.38,3.59,3.59,0,0,1,.94.37,1.48,1.48,0,0,1,.51.48,1.19,1.19,0,0,1,.16.64,1.12,1.12,0,0,1-.46.94,2,2,0,0,1-1.22.35,2.24,2.24,0,0,1-.93-.19,1.62,1.62,0,0,1-.67-.52,1.31,1.31,0,0,1-.23-.76h.64a.85.85,0,0,0,.32.7,1.38,1.38,0,0,0,.87.25,1.24,1.24,0,0,0,.77-.21.72.72,0,0,0,0-1.11A2.94,2.94,0,0,0,332,141.28Z" style="fill: #52575b"/>
          <path d="M335.72,139v.87h.67v.48h-.67v2.23a.49.49,0,0,0,.09.32.36.36,0,0,0,.3.11,1.23,1.23,0,0,0,.29,0v.5a2,2,0,0,1-.47.06.76.76,0,0,1-.62-.25,1,1,0,0,1-.21-.7v-2.23h-.65v-.48h.65V139Z" style="fill: #52575b"/>
          <path d="M339.45,143.44a1.6,1.6,0,0,1-.08-.38,1.41,1.41,0,0,1-1,.44,1.28,1.28,0,0,1-.87-.3,1,1,0,0,1-.34-.76,1,1,0,0,1,.43-.87,2,2,0,0,1,1.2-.31h.6V141a.7.7,0,0,0-.2-.52.79.79,0,0,0-.56-.19.93.93,0,0,0-.56.17.5.5,0,0,0-.22.4h-.62a.85.85,0,0,1,.2-.52,1.29,1.29,0,0,1,.51-.4,1.89,1.89,0,0,1,.72-.14,1.42,1.42,0,0,1,1,.31,1.12,1.12,0,0,1,.36.85v1.66a1.86,1.86,0,0,0,.13.78v.06Zm-1-.47a1.06,1.06,0,0,0,.55-.15,1,1,0,0,0,.38-.39v-.74h-.49c-.75,0-1.12.22-1.12.66a.53.53,0,0,0,.19.45A.73.73,0,0,0,338.43,143Z" style="fill: #52575b"/>
          <path d="M341.91,139v.87h.68v.48h-.68v2.23a.55.55,0,0,0,.09.32.4.4,0,0,0,.31.11,1.23,1.23,0,0,0,.29,0v.5a2,2,0,0,1-.47.06.76.76,0,0,1-.62-.25,1,1,0,0,1-.21-.7v-2.23h-.65v-.48h.65V139Z" style="fill: #52575b"/>
          <path d="M344.84,143.5a1.55,1.55,0,0,1-1.18-.48,1.76,1.76,0,0,1-.46-1.28v-.11a2.26,2.26,0,0,1,.2-1A1.67,1.67,0,0,1,344,140a1.52,1.52,0,0,1,.8-.23,1.35,1.35,0,0,1,1.09.46,2.05,2.05,0,0,1,.38,1.32v.26h-2.43a1.24,1.24,0,0,0,.31.85,1,1,0,0,0,.76.33,1.07,1.07,0,0,0,.55-.13,1.44,1.44,0,0,0,.39-.35l.38.29A1.51,1.51,0,0,1,344.84,143.5Zm-.07-3.22a.83.83,0,0,0-.63.27,1.39,1.39,0,0,0-.31.76h1.8v-.05a1.17,1.17,0,0,0-.25-.72A.79.79,0,0,0,344.77,140.28Z" style="fill: #52575b"/>
          <path d="M352.45,143.44h-.64l-2.44-3.73v3.73h-.64V138.6h.64l2.44,3.74V138.6h.64Z" style="fill: #52575b"/>
          <path d="M356.93,140.84h1.35v.58h-1.35V143h-.62v-1.53H355v-.58h1.35v-1.41h.62Z" style="fill: #52575b"/>
          <path d="M362.66,143.44H362v-4.1l-1.24.46v-.56l1.76-.66h.1Z" style="fill: #52575b"/>
        </g>
        <g>
          <path d="M232.17,55.66h-.64l-2.43-3.72v3.72h-.64V50.83h.64l2.44,3.74V50.83h.63Z" style="fill: #6d9fc9"/>
          <path d="M233.21,53.83a2.24,2.24,0,0,1,.2-.95,1.67,1.67,0,0,1,.58-.65,1.61,1.61,0,0,1,.85-.23,1.49,1.49,0,0,1,1.18.51,1.92,1.92,0,0,1,.46,1.35v0a2.2,2.2,0,0,1-.2.94,1.66,1.66,0,0,1-.58.65,1.62,1.62,0,0,1-.86.23,1.51,1.51,0,0,1-1.18-.51,2,2,0,0,1-.45-1.34Zm.61.08a1.61,1.61,0,0,0,.28,1,.89.89,0,0,0,.74.36.91.91,0,0,0,.75-.37,1.71,1.71,0,0,0,.27-1,1.49,1.49,0,0,0-.28-.95.86.86,0,0,0-.74-.37.89.89,0,0,0-.74.36A1.72,1.72,0,0,0,233.82,53.91Z" style="fill: #6d9fc9"/>
        </g>
        <g>
          <path d="M229.93,125.59l1.26-2.43h.73l-1.67,3V128h-.64v-1.81l-1.66-3h.73Z" style="fill: #6d9fc9"/>
          <path d="M233.67,128.06a1.55,1.55,0,0,1-1.18-.48,1.76,1.76,0,0,1-.46-1.28v-.11a2.12,2.12,0,0,1,.2-1,1.67,1.67,0,0,1,.57-.66,1.52,1.52,0,0,1,.8-.23,1.35,1.35,0,0,1,1.09.46,2.05,2.05,0,0,1,.38,1.32v.26h-2.43a1.24,1.24,0,0,0,.31.85,1,1,0,0,0,.76.33,1.07,1.07,0,0,0,.55-.13,1.44,1.44,0,0,0,.39-.35l.38.29A1.51,1.51,0,0,1,233.67,128.06Zm-.07-3.22a.83.83,0,0,0-.63.27,1.39,1.39,0,0,0-.31.76h1.8v-.05a1.17,1.17,0,0,0-.25-.72A.79.79,0,0,0,233.6,124.84Z" style="fill: #6d9fc9"/>
          <path d="M238,127a.44.44,0,0,0-.19-.38,1.67,1.67,0,0,0-.65-.24,3.38,3.38,0,0,1-.74-.24,1.07,1.07,0,0,1-.41-.33.86.86,0,0,1-.13-.46,1,1,0,0,1,.38-.75,1.46,1.46,0,0,1,.95-.3,1.49,1.49,0,0,1,1,.31,1,1,0,0,1,.38.81H238a.59.59,0,0,0-.22-.44.94.94,0,0,0-1.06,0,.45.45,0,0,0-.19.38.37.37,0,0,0,.17.33,2.08,2.08,0,0,0,.64.22,3.28,3.28,0,0,1,.75.25,1.12,1.12,0,0,1,.42.34.86.86,0,0,1,.14.49.91.91,0,0,1-.39.77,1.58,1.58,0,0,1-1,.29,1.81,1.81,0,0,1-.76-.15,1.16,1.16,0,0,1-.52-.43,1,1,0,0,1-.19-.59h.62a.63.63,0,0,0,.24.49,1,1,0,0,0,.61.18,1,1,0,0,0,.56-.14A.43.43,0,0,0,238,127Z" style="fill: #6d9fc9"/>
        </g>
        <rect x="76.97" y="154.03" width="15.31" height="14.96" style="fill: none;stroke: #f2f5f7;stroke-miterlimit: 10;stroke-width: 2px"/>
        <rect x="92.28" y="154.03" width="15.31" height="14.96" style="fill: none;stroke: #f2f5f7;stroke-miterlimit: 10;stroke-width: 2px"/>
        <rect x="107.59" y="154.03" width="15.31" height="14.96" style="fill: none;stroke: #f2f5f7;stroke-miterlimit: 10;stroke-width: 2px"/>
        <g>
          <path d="M320.49,161.84v1.89h-.64V158.9h1.79a1.8,1.8,0,0,1,1.24.4,1.38,1.38,0,0,1,.45,1.08,1.35,1.35,0,0,1-.44,1.08,1.88,1.88,0,0,1-1.26.38Zm0-.52h1.15a1.14,1.14,0,0,0,.78-.24.88.88,0,0,0,.27-.7.9.9,0,0,0-.27-.69,1.1,1.1,0,0,0-.75-.27h-1.18Z" style="fill: #52575b"/>
          <path d="M326.16,163.73h-.62v-4.09l-1.24.45v-.55l1.76-.66h.1Z" style="fill: #52575b"/>
        </g>
        <g>
          <path d="M335.74,161.84v1.89h-.64V158.9h1.79a1.8,1.8,0,0,1,1.24.4,1.38,1.38,0,0,1,.45,1.08,1.35,1.35,0,0,1-.44,1.08,1.88,1.88,0,0,1-1.26.38Zm0-.52h1.15a1.14,1.14,0,0,0,.78-.24.88.88,0,0,0,.27-.7.9.9,0,0,0-.27-.69,1.1,1.1,0,0,0-.75-.27h-1.18Z" style="fill: #52575b"/>
          <path d="M342.68,163.73h-3.17v-.44l1.67-1.86a4.56,4.56,0,0,0,.52-.68,1.21,1.21,0,0,0,.14-.55.88.88,0,0,0-.23-.62.82.82,0,0,0-.61-.24.94.94,0,0,0-.72.26,1,1,0,0,0-.25.72h-.61a1.43,1.43,0,0,1,.43-1.08,1.6,1.6,0,0,1,1.15-.41,1.5,1.5,0,0,1,1.06.36,1.2,1.2,0,0,1,.39.94,2.77,2.77,0,0,1-.91,1.7l-1.29,1.4h2.43Z" style="fill: #52575b"/>
        </g>
        <g>
          <path d="M351.06,161.84v1.89h-.64V158.9h1.79a1.78,1.78,0,0,1,1.24.4,1.38,1.38,0,0,1,.45,1.08,1.35,1.35,0,0,1-.44,1.08,1.88,1.88,0,0,1-1.26.38Zm0-.52h1.15a1.14,1.14,0,0,0,.78-.24.88.88,0,0,0,.27-.7.9.9,0,0,0-.27-.69,1.1,1.1,0,0,0-.75-.27h-1.18Z" style="fill: #52575b"/>
          <path d="M355.7,161h.46a1.06,1.06,0,0,0,.69-.23.79.79,0,0,0,.25-.6.75.75,0,0,0-.85-.85.91.91,0,0,0-.64.22.85.85,0,0,0-.23.61h-.62a1.24,1.24,0,0,1,.42-1,1.56,1.56,0,0,1,1.07-.38,1.51,1.51,0,0,1,1.07.36,1.33,1.33,0,0,1,.39,1,1.11,1.11,0,0,1-.2.61,1.17,1.17,0,0,1-.56.44,1.27,1.27,0,0,1,.62.42,1.2,1.2,0,0,1,.21.72,1.33,1.33,0,0,1-.42,1,1.82,1.82,0,0,1-2.21,0,1.21,1.21,0,0,1-.43-1h.62a.78.78,0,0,0,.25.61,1.09,1.09,0,0,0,1.34,0,.9.9,0,0,0,.24-.67.83.83,0,0,0-.26-.65,1.1,1.1,0,0,0-.75-.23h-.46Z" style="fill: #52575b"/>
        </g>
        <rect x="315.77" y="154.03" width="15.31" height="14.96" style="fill: none;stroke: #f2f5f7;stroke-miterlimit: 10;stroke-width: 2px"/>
        <rect x="331.08" y="154.03" width="15.31" height="14.96" style="fill: none;stroke: #f2f5f7;stroke-miterlimit: 10;stroke-width: 2px"/>
        <rect x="346.39" y="154.03" width="15.31" height="14.96" style="fill: none;stroke: #f2f5f7;stroke-miterlimit: 10;stroke-width: 2px"/>
        <g>
          <path d="M366.65,161.84v1.89H366V158.9h1.78a1.78,1.78,0,0,1,1.24.4,1.38,1.38,0,0,1,.45,1.08,1.32,1.32,0,0,1-.44,1.08,1.88,1.88,0,0,1-1.26.38Zm0-.52h1.14a1.14,1.14,0,0,0,.78-.24.89.89,0,0,0,.28-.7.91.91,0,0,0-.28-.69,1.09,1.09,0,0,0-.74-.27h-1.18Z" style="fill: #52575b"/>
          <path d="M372.7,162.11h.67v.5h-.67v1.12h-.62v-1.12h-2.2v-.36l2.17-3.35h.65Zm-2.12,0h1.5v-2.37l-.07.13Z" style="fill: #52575b"/>
        </g>
        <rect x="361.83" y="154.03" width="15.31" height="14.96" style="fill: none;stroke: #f2f5f7;stroke-miterlimit: 10;stroke-width: 2px"/>
        <line x1="3.56" y1="161.75" x2="63.99" y2="161.75" style="fill: #faf5fc;stroke: #6d9fc9;stroke-miterlimit: 10;stroke-dasharray: 4,2;opacity: 0.33"/>
        <line x1="138.24" y1="161.75" x2="194.76" y2="161.75" style="fill: #faf5fc;stroke: #6d9fc9;stroke-miterlimit: 10;stroke-dasharray: 4,2;opacity: 0.33"/>
        <line x1="261.23" y1="161.75" x2="309.86" y2="161.75" style="fill: #b8c8d3;stroke: #6d9fc9;stroke-miterlimit: 10;stroke-dasharray: 4,2;opacity: 0.33"/>
        <g style="opacity: 0.33">
          <line x1="384.32" y1="161.75" x2="443.79" y2="161.75" style="fill: #faf5fc"/>
          <g>
            <line x1="384.32" y1="161.75" x2="443.03" y2="161.75" style="fill: none;stroke: #6d9fc9;stroke-miterlimit: 10;stroke-dasharray: 4,2"/>
            <polygon points="440.71 164.61 440.23 164.1 442.76 161.75 440.23 159.4 440.71 158.89 443.79 161.75 440.71 164.61" style="fill: #6d9fc9"/>
          </g>
        </g>
        <g style="opacity: 0.33">
          <line x1="1.14" y1="161.75" x2="3.56" y2="161.75" style="fill: #faf5fc"/>
          <polygon points="0.48 164.61 0 164.1 2.53 161.75 0 159.4 0.48 158.89 3.56 161.75 0.48 164.61" style="fill: #6d9fc9"/>
        </g>
        <g id="700a9dc5-2249-4595-bd52-0e143e82821d" data-name="Group-11" style="opacity: 0.33">
          <g id="579564a0-5af6-4aea-8a7b-1a7fc7e089db" data-name="Stroke-36">
            <path d="M43.42,165.25h-4v-7h4Zm-6,0h-4v-7h4Zm-6,0H27.59v-7h3.83Z" style="fill: #6d9fc9"/>
          </g>
          <g id="f5efdf8b-b08e-4085-8e26-1d2e013ec35f" data-name="Fill-38">
            <polygon points="43.4 154.75 55.5 161.65 43.5 168.75 43.4 154.75" style="fill: #6d9fc9"/>
          </g>
          <g id="7a3d2068-7467-4492-85c9-5cf026f91283" data-name="Fill-40">
            <path d="M27.07,158.35a3.4,3.4,0,1,0,3.5,3.4,3.44,3.44,0,0,0-3.5-3.4" style="fill: #6d9fc9"/>
          </g>
        </g>
        <g id="a259d5fa-8f50-4490-bf8c-7e73dfae080a" data-name="Group-11" style="opacity: 0.33">
          <g id="f33300b9-fa1c-4c56-91b6-4ab1e23bf023" data-name="Stroke-36">
            <path d="M166.43,165.25h-4v-7h4Zm-6,0h-4v-7h4Zm-6,0H150.6v-7h3.83Z" style="fill: #6d9fc9"/>
          </g>
          <g id="b15eb792-0320-4282-b479-ad401211291d" data-name="Fill-38">
            <polygon points="166.41 154.75 178.51 161.65 166.51 168.75 166.41 154.75" style="fill: #6d9fc9"/>
          </g>
          <g id="6596a8d2-3de4-421c-b40f-b9ae8e2681fd" data-name="Fill-40">
            <path d="M150.08,158.35a3.4,3.4,0,1,0,3.5,3.4,3.44,3.44,0,0,0-3.5-3.4" style="fill: #6d9fc9"/>
          </g>
        </g>
        <g id="65ead41b-f4ca-45c6-b37c-e182207ac39c" data-name="Group-11" style="opacity: 0.33">
          <g id="d4ab9578-ce3b-4d49-9917-a5092d2f31e9" data-name="Stroke-36">
            <path d="M289.36,165.25h-4v-7h4Zm-6,0h-4v-7h4Zm-6,0h-3.83v-7h3.83Z" style="fill: #6d9fc9"/>
          </g>
          <g id="e85c19a3-5a04-4319-936c-463452463ed5" data-name="Fill-38">
            <polygon points="289.35 154.75 301.44 161.65 289.44 168.75 289.35 154.75" style="fill: #6d9fc9"/>
          </g>
          <g id="9688a611-9316-4f93-af21-7b7207dea773" data-name="Fill-40">
            <path d="M273,158.35a3.4,3.4,0,1,0,3.5,3.4,3.44,3.44,0,0,0-3.5-3.4" style="fill: #6d9fc9"/>
          </g>
        </g>
        <g id="196a8cd7-62e6-4ef2-84af-fd8b616f6a73" data-name="Group-11" style="opacity: 0.33">
          <g id="003e126e-0196-4ec9-9016-20317b0c3eec" data-name="Stroke-36">
            <path d="M414.91,165.25h-4v-7h4Zm-6,0h-4v-7h4Zm-6,0h-3.83v-7h3.83Z" style="fill: #6d9fc9"/>
          </g>
          <g id="45b8f1fd-2c7a-492e-aa66-5f92ea4746b5" data-name="Fill-38">
            <polygon points="414.89 154.75 426.99 161.65 414.99 168.75 414.89 154.75" style="fill: #6d9fc9"/>
          </g>
          <g id="8b795282-3c49-40e5-8eca-8cc21de48a87" data-name="Fill-40">
            <path d="M398.56,158.35a3.4,3.4,0,1,0,3.5,3.4,3.44,3.44,0,0,0-3.5-3.4" style="fill: #6d9fc9"/>
          </g>
        </g>
      </g>
    </g>
  </g>
</svg>
