<svg xmlns="http://www.w3.org/2000/svg" width="260.24" height="21.24" viewBox="0 0 260.24 21.24">
  <defs>
    <style>
      .a, .b {
        fill: #21d8af;
      }

      .b {
        fill-rule: evenodd;
      }
    </style>
  </defs>
  <title>logo-imandra</title>
  <g>
    <ellipse class="a" cx="9.1" cy="10.61" rx="9.1" ry="9.06"/>
    <ellipse class="a" cx="67.33" cy="10.61" rx="9.1" ry="9.06"/>
    <rect class="a" x="33.81" width="8.49" height="21.24"/>
    <rect class="a" x="102.73" y="5.51" width="1.39" height="11.47"/>
    <polygon class="b" points="126.19 13.37 125.87 13.37 121.71 7.53 121.71 16.98 120.33 16.98 120.33 5.51 122.03 5.51 126.08 11.35 130.14 5.51 131.84 5.51 131.84 16.98 130.46 16.98 130.46 7.63 126.19 13.37"/>
    <path class="b" d="M152.53,7l-2.77,6.16h5.44Zm.85-1.49L158.5,17H157l-1.17-2.55h-6.61L148.16,17h-1.6l5.12-11.47Z"/>
    <polygon class="b" points="174.29 5.51 181.32 14.22 181.32 5.51 182.71 5.51 182.71 16.98 181.75 16.98 174.71 8.27 174.71 16.98 173.33 16.98 173.33 5.51 174.29 5.51"/>
    <path class="b" d="M207.45,11.14a4.1,4.1,0,0,0-4.37-4.25h-2.77V15.6h2.77A4.2,4.2,0,0,0,207.45,11.14Zm-8.53-5.63h4.16a5.38,5.38,0,0,1,5.76,5.63c0,3-1.71,5.84-5.76,5.84h-4.16Z"/>
    <path class="b" d="M232,9.23a2.4,2.4,0,0,0-2.45-2.44h-3.84v4.78h3.73A2.3,2.3,0,0,0,232,9.23Zm-3.41,3.61h-2.77V17h-1.39V5.51h5.23a3.58,3.58,0,0,1,3.84,3.61,3.28,3.28,0,0,1-3.31,3.5L234,16.87h-1.81Z"/>
    <path class="b" d="M254.27,7l-2.77,6.16h5.44ZM255,5.51,260.24,17h-1.49l-1.17-2.55H251L249.89,17h-1.6l5.12-11.47Z"/>
  </g>
</svg>
