<svg xmlns="http://www.w3.org/2000/svg" width="155.43" height="23.67" viewBox="0 0 155.43 23.67">
  <defs>
    <style>
      .a {
        fill: #fff;
      }

      .b {
        fill: #005fb6;
      }
    </style>
  </defs>
  <title>logo-cme</title>
  <g>
    <path class="a" d="M25.33,10.17v0A9.11,9.11,0,0,1,34.74,1a9.25,9.25,0,0,1,6.74,2.61L39.1,6.53a6.09,6.09,0,0,0-4.61-2,5.31,5.31,0,0,0-5.11,5.49v.05a5.32,5.32,0,0,0,5.11,5.54,6.63,6.63,0,0,0,4.79-1.93l2.41,2.69a9.49,9.49,0,0,1-7.32,2.81,9,9,0,0,1-9-9.06"/>
    <polyline class="a" points="43.87 1.31 48.04 1.31 52.67 8.44 57.31 1.31 61.48 1.31 61.48 18.93 57.63 18.93 57.63 7.18 52.67 14.45 52.57 14.45 47.67 7.25 47.67 18.93 43.87 18.93 43.87 1.31"/>
    <polyline class="a" points="65 1.31 78.29 1.31 78.29 4.76 68.9 4.76 68.9 8.33 77.41 8.33 77.41 11.78 68.9 11.78 68.9 15.48 78.42 15.48 78.42 18.93 65 18.93 65 1.31"/>
    <path class="a" d="M84,10.17v0A9,9,0,0,1,93.08,1a9.84,9.84,0,0,1,6.6,2.23L98.47,4.8a8.15,8.15,0,0,0-5.46-2,7.07,7.07,0,0,0-6.92,7.22v.05a7,7,0,0,0,7.27,7.32,8.43,8.43,0,0,0,5-1.64V11.43H93.16V9.64h7.12v7a10.76,10.76,0,0,1-7,2.57A8.89,8.89,0,0,1,84,10.17"/>
    <path class="a" d="M103.7,5.92h1.94V8.67a5.46,5.46,0,0,1,5.31-3V7.78h-.15A5.36,5.36,0,0,0,107,9.23a6.26,6.26,0,0,0-1.37,4.52v5.19H103.7v-13"/>
    <path class="a" d="M111.76,12.49v0a6.78,6.78,0,0,1,13.56,0v0a6.75,6.75,0,0,1-6.82,6.79,6.66,6.66,0,0,1-6.75-6.74m11.58,0v0a4.92,4.92,0,0,0-4.83-5.08,4.8,4.8,0,0,0-4.76,5v0a4.88,4.88,0,0,0,4.81,5.06A4.8,4.8,0,0,0,123.34,12.49Z"/>
    <path class="a" d="M127.68,14V5.92h1.94v7.6c0,2.42,1.31,3.93,3.6,3.93a4,4,0,0,0,2.84-1.08,4.16,4.16,0,0,0,1.07-3V5.92H139v13h-1.91V17a5,5,0,0,1-4.46,2.17c-3.14,0-5-2.12-5-5.21"/>
    <path class="a" d="M142.29,5.92h1.94V8.33a5.78,5.78,0,0,1,5-2.69c3.12,0,6.22,2.47,6.22,6.75v0c0,4.25-3.07,6.77-6.22,6.77a5.8,5.8,0,0,1-5-2.54v7h-1.94V5.92m11.15,6.54v0c0-3.07-2.12-5-4.58-5a4.85,4.85,0,0,0-4.7,5v0a4.84,4.84,0,0,0,4.7,5C151.37,17.47,153.44,15.61,153.44,12.46Z"/>
    <path class="b" d="M14.69,16.56h3.49l2.12-2.11v-.57H15.63a12.52,12.52,0,0,1-.94,2.68"/>
    <path class="b" d="M12.55,19.5a7.81,7.81,0,0,1-1,.81h2.89l3-3H14.31a10.91,10.91,0,0,1-1.76,2.24"/>
    <path class="b" d="M15.78,13.18H20.3V10.5H16a16.58,16.58,0,0,1-.26,2.68"/>
    <path class="b" d="M15.62,6.42H20.3V5.86L18.17,3.74h-3.5a12.66,12.66,0,0,1,1,2.68"/>
    <path class="b" d="M6,17.26H2.82l3.05,3H8.75a7.46,7.46,0,0,1-1-.8A10.87,10.87,0,0,1,6,17.26"/>
    <path class="b" d="M16,9.8H20.3V7.12H15.77A16.55,16.55,0,0,1,16,9.8"/>
    <path class="b" d="M7.75.82A7.37,7.37,0,0,1,8.81,0H5.87l-3,3H6A10.83,10.83,0,0,1,7.75.82"/>
    <path class="b" d="M12.09,1.34A9.29,9.29,0,0,0,10.51.09V3h3a9.66,9.66,0,0,0-1.37-1.69"/>
    <path class="b" d="M14.3,3h3.17l-3-3H11.5a7.32,7.32,0,0,1,1.06.82A10.88,10.88,0,0,1,14.3,3"/>
    <path class="b" d="M4.67,13.88H0v.57l2.12,2.11H5.61a12.68,12.68,0,0,1-.94-2.68"/>
    <path class="b" d="M5.63,3.74H2.13L0,5.86v.56H4.68a12.63,12.63,0,0,1,1-2.68"/>
    <path class="b" d="M4.53,7.12H0V9.8H4.27a16.62,16.62,0,0,1,.26-2.68"/>
    <path class="b" d="M4.27,10.5H0v2.68H4.52a16.59,16.59,0,0,1-.26-2.68"/>
    <path class="b" d="M5.41,6.42H9.79V3.74H6.43a11.66,11.66,0,0,0-1,2.68"/>
    <path class="b" d="M10.51,16.56h3.37c.13-.25.25-.5.37-.78a12.7,12.7,0,0,0,.63-1.9H10.51v2.68"/>
    <path class="b" d="M10.51,13.18H15a15.36,15.36,0,0,0,.28-2.68H10.51v2.68"/>
    <path class="b" d="M10.51,20.25A9.27,9.27,0,0,0,12.12,19a9.3,9.3,0,0,0,1.36-1.72h-3v3"/>
    <path class="b" d="M10.51,3.74V6.42h4.38a11.72,11.72,0,0,0-1-2.68H10.51"/>
    <path class="b" d="M10.51,9.8h4.81A16,16,0,0,0,15,7.12H10.51V9.8"/>
    <path class="b" d="M6.84,3H9.79V.09A9.36,9.36,0,0,0,8.21,1.34,9.62,9.62,0,0,0,6.84,3"/>
    <path class="b" d="M6.41,16.56H9.79V13.88H5.4a11.73,11.73,0,0,0,1,2.68"/>
    <path class="b" d="M5.25,13.18H9.79V10.5H5a15.69,15.69,0,0,0,.27,2.68"/>
    <path class="b" d="M5,9.8H9.79V7.12H5.26A15.89,15.89,0,0,0,5,9.8"/>
    <path class="b" d="M8.21,19a9.33,9.33,0,0,0,1.58,1.25v-3h-3A9.77,9.77,0,0,0,8.21,19"/>
  </g>
</svg>
