<svg xmlns="http://www.w3.org/2000/svg" width="189.52" height="35.43" viewBox="0 0 189.52 35.43">
  <defs>
    <style>
      .a {
        fill: #fff;
        fill-rule: evenodd;
      }
    </style>
  </defs>
  <title>logo-db</title>
  <g>
    <path class="a" d="M154.17,0h35.36V35.43H154.17V0Zm4.94,4.88v25.6h25.48V4.88Z"/>
    <polygon class="a" points="162.1 26.78 174.84 7.95 181.73 7.81 168.57 26.78 162.1 26.78 162.1 26.78"/>
    <path class="a" d="M0,25.58V11.21H6.13a5.25,5.25,0,0,1,4.52,2.3A8.42,8.42,0,0,1,12,18.4a8.06,8.06,0,0,1-1.53,5,5.28,5.28,0,0,1-4.38,2.23ZM3,13.8V23H5.78a2.67,2.67,0,0,0,2.44-1.4,6.25,6.25,0,0,0,.7-3.21,6,6,0,0,0-.7-3,2.58,2.58,0,0,0-2.44-1.6Zm17.68,8.44h2.78A4.09,4.09,0,0,1,21.65,25a5.51,5.51,0,0,1-3.13.84A4.5,4.5,0,0,1,15,24.19a5.66,5.66,0,0,1-1.46-4,5.29,5.29,0,0,1,1.39-3.7,4.93,4.93,0,0,1,3.62-1.54,4.35,4.35,0,0,1,4.25,2.23,6.44,6.44,0,0,1,.63,1.74A10.87,10.87,0,0,1,23.59,21H16.36a2.59,2.59,0,0,0,.56,1.53,2,2,0,0,0,1.6.84,3.73,3.73,0,0,0,1.32-.28,1.53,1.53,0,0,0,.84-.91Zm-4.32-3h4.32A1.72,1.72,0,0,0,20,17.91a2.28,2.28,0,0,0-1.53-.63,2,2,0,0,0-1.46.63,1.59,1.59,0,0,0-.7,1.32Zm9-4.11h2.78V22a1.47,1.47,0,0,0,.49,1,1.89,1.89,0,0,0,1.18.42,2.19,2.19,0,0,0,1.46-.49,1.83,1.83,0,0,0,.63-1.33V15.12h2.71V25.58H31.88V24.26a3.82,3.82,0,0,1-3.13,1.53,4.07,4.07,0,0,1-2.3-.7,2.43,2.43,0,0,1-1.11-2v-8Zm14.75-3v3h1.6v2h-1.6v5.37a.86.86,0,0,0,.28.56.85.85,0,0,0,.63.21h.42a.53.53,0,0,1,.28-.07v2.44a5.68,5.68,0,0,1-.91.14,5,5,0,0,1-1.11.07,2.16,2.16,0,0,1-1.67-.7,2.05,2.05,0,0,1-.63-1.53V17.07H36v-2h1.39v-1.4l2.71-1.6ZM42.87,22h2.78a1.31,1.31,0,0,0,.56,1.19,2.21,2.21,0,0,0,1.39.42,2.74,2.74,0,0,0,1.18-.21.93.93,0,0,0,.56-.91c0-.56-.49-1-1.6-1.26a18.1,18.1,0,0,1-3-.91,2.32,2.32,0,0,1-1.67-2.16,2.94,2.94,0,0,1,1.18-2.37,4.72,4.72,0,0,1,3.06-.91,5.29,5.29,0,0,1,3.06.84,3,3,0,0,1,1.39,2.65H49.21a1.35,1.35,0,0,0-.63-1,2.4,2.4,0,0,0-1.25-.35,2.3,2.3,0,0,0-1,.28.88.88,0,0,0-.42.77c0,.42.56.77,1.6,1a13.18,13.18,0,0,1,3,.7,2.55,2.55,0,0,1,1.67,2.51A2.86,2.86,0,0,1,50.67,25a5.28,5.28,0,0,1-3.06.84,5.38,5.38,0,0,1-3.41-1A3.08,3.08,0,0,1,42.87,22ZM58.6,25.79A4.74,4.74,0,0,1,55,24.19a5.94,5.94,0,0,1-1.39-4,5.28,5.28,0,0,1,1.46-3.7,4.89,4.89,0,0,1,3.55-1.54,5,5,0,0,1,3.27,1.19,3.32,3.32,0,0,1,1.46,2.79H60.55A1.36,1.36,0,0,0,60,17.77a2,2,0,0,0-1.39-.49,1.86,1.86,0,0,0-1.6.84,3.49,3.49,0,0,0-.56,2A4.78,4.78,0,0,0,57,22.51a1.93,1.93,0,0,0,1.6.91,1.9,1.9,0,0,0,1.32-.56,1.46,1.46,0,0,0,.63-1.19h2.78a3.7,3.7,0,0,1-1.46,3,5.44,5.44,0,0,1-3.27,1.12Zm6.54-14.58h2.78v5a3,3,0,0,1,1.39-1,7.55,7.55,0,0,1,1.81-.28,3.82,3.82,0,0,1,2.44.84,2.48,2.48,0,0,1,1,2.09v7.74H71.9V19a1.73,1.73,0,0,0-.49-1.25,1.63,1.63,0,0,0-1.18-.42,2.71,2.71,0,0,0-1.6.49,1.69,1.69,0,0,0-.7,1.33v6.42H65.15V11.21Zm18.44,11H86.3A4.09,4.09,0,0,1,84.5,25a5.44,5.44,0,0,1-3.06.84,4.75,4.75,0,0,1-3.62-1.6,5.61,5.61,0,0,1-1.39-4,5,5,0,0,1,1.39-3.7,4.81,4.81,0,0,1,3.62-1.54,4.31,4.31,0,0,1,4.18,2.23,4.83,4.83,0,0,1,.7,1.74A11,11,0,0,1,86.44,21H79.21a2.29,2.29,0,0,0,.63,1.53,1.94,1.94,0,0,0,1.6.84,4.09,4.09,0,0,0,1.32-.28,2.12,2.12,0,0,0,.84-.91Zm-4.38-3h4.38a1.8,1.8,0,0,0-.7-1.32,2,2,0,0,0-1.46-.63,2.16,2.16,0,0,0-1.53.63,1.8,1.8,0,0,0-.7,1.32Zm14.13,6.35V11.21h7.31a3.42,3.42,0,0,1,2.64,1.12,3.87,3.87,0,0,1,.77,4.53,3.43,3.43,0,0,1-1.39,1.25,4.64,4.64,0,0,1,1.74,1.33,3.43,3.43,0,0,1,.63,2,4,4,0,0,1-1.18,2.93,3.46,3.46,0,0,1-2.72,1.26ZM96.26,13.8v3.07h3.55a2,2,0,0,0,1.25-.42,1.26,1.26,0,0,0,.49-1,1.53,1.53,0,0,0-.49-1.19,1.75,1.75,0,0,0-1.18-.42Zm0,5.65V23H100a1.78,1.78,0,0,0,1.39-.56,1.69,1.69,0,0,0,0-2.51,2,2,0,0,0-1.39-.49Zm13.64-1.19h-2.79a3,3,0,0,1,1.39-2.58,5.78,5.78,0,0,1,3-.77,6.71,6.71,0,0,1,3.55.77,2.2,2.2,0,0,1,1,1.81v6.42a2.5,2.5,0,0,0,.63,1.67H113.8a2.42,2.42,0,0,1-.35-.56,3.16,3.16,0,0,1-.21-.63,3,3,0,0,1-1.39,1,4.72,4.72,0,0,1-1.88.35,3.21,3.21,0,0,1-3.27-3.14,3.28,3.28,0,0,1,.77-2.16,3.33,3.33,0,0,1,2.09-1c1.6-.28,2.37-.42,2.44-.42.84-.21,1.25-.49,1.25-.77a.89.89,0,0,0-.49-.91,2.09,2.09,0,0,0-1.25-.28,3,3,0,0,0-1.18.28,1,1,0,0,0-.42.91ZM113.24,22v-1.6a21,21,0,0,0-2.16.49c-1,.28-1.53.77-1.53,1.39s.07.77.35,1a1.76,1.76,0,0,0,1.11.28,2.51,2.51,0,0,0,1.39-.42,1.73,1.73,0,0,0,.84-1.12Zm5.22-6.9h2.78v1.19a4,4,0,0,1,1.32-1,5.49,5.49,0,0,1,1.67-.35,4.55,4.55,0,0,1,2.44.7,2.65,2.65,0,0,1,1.11,2.09v7.88H125v-6.9a1.17,1.17,0,0,0-.42-1,1.63,1.63,0,0,0-1.11-.35,2.49,2.49,0,0,0-1.32.28,3.42,3.42,0,0,0-.91,1v6.9h-2.78V15.12ZM130,11.21h2.78v7.67l3.2-3.77h3.34l-3.41,4,3.76,6.49h-3.27l-2.37-4.46-1.25,1.33v3.14H130V11.21Z"/>
  </g>
</svg>
